<svg xmlns="http://www.w3.org/2000/svg" viewBox="0 0 750 500"><g id="freepik--background-complete--inject-18"><path d="M311.71,364.63a34.46,34.46,0,0,1,8.42-3.66l1.73-8.33,14.08-.25,2,8.27a34.81,34.81,0,0,1,8.54,3.36l7.11-4.66,10.13,9.78-4.41,7.27a34.46,34.46,0,0,1,3.66,8.42l8.33,1.73.25,14.08-8.27,2a34,34,0,0,1-3.36,8.54l4.67,7.11-9.78,10.13L347.56,424a34.29,34.29,0,0,1-8.42,3.66L337.41,436l-14.08.25-2-8.27a33.88,33.88,0,0,1-8.54-3.36l-7.12,4.67-10.13-9.78,4.41-7.28a34.29,34.29,0,0,1-3.66-8.42l-8.33-1.73L287.69,388l8.27-2a34.65,34.65,0,0,1,3.36-8.54l-4.66-7.12,9.78-10.13,7.27,4.41Zm7.51,18.76a15.1,15.1,0,1,0,21.35-.38A15.09,15.09,0,0,0,319.22,383.39Z" style="fill:#ebebeb"></path><path d="M165.87,58.73a31.28,31.28,0,0,1,7.64-3.32l1.58-7.57,12.78-.22,1.84,7.5a31.55,31.55,0,0,1,7.76,3.05l6.46-4.23,9.2,8.88-4,6.6a31.34,31.34,0,0,1,3.32,7.65L220,78.64l.22,12.79-7.5,1.84a31.33,31.33,0,0,1-3,7.75l4.23,6.47L205,116.68l-6.6-4a31.18,31.18,0,0,1-7.65,3.32l-1.57,7.57-12.79.22-1.84-7.51a31.25,31.25,0,0,1-7.75-3l-6.46,4.24-9.2-8.88,4-6.61a31.11,31.11,0,0,1-3.32-7.64l-7.56-1.58L144.06,80l7.51-1.84a31.16,31.16,0,0,1,3.05-7.76l-4.24-6.46,8.88-9.2,6.61,4Zm6.81,17a13.72,13.72,0,1,0,19.4-.34A13.71,13.71,0,0,0,172.68,75.76Z" style="fill:#ebebeb"></path><rect x="483.61" y="26.54" width="1" height="221.67" transform="matrix(0.5, -0.86, 0.86, 0.5, 121.69, 486.49)" style="fill:#ebebeb"></rect><path d="M131.35,300.21l-.72-.7c.79-.81,79.25-81.2,112.43-117.45,24-26.27,94-99.11,94.71-99.84l.72.69c-.7.73-70.66,73.57-94.69,99.82C210.61,219,132.14,299.4,131.35,300.21Z" style="fill:#ebebeb"></path><path d="M109,315.38a8.09,8.09,0,0,0,4.82-7.49,7.6,7.6,0,1,0-15.17-.07,8.08,8.08,0,0,0,4.83,7.56c-11.67,1.76-11.14,14.45-11.14,14.45L120,330S120.61,317.13,109,315.38Z" style="fill:#ebebeb"></path><path d="M106.17,346.22a30.4,30.4,0,1,1,30.4-30.4A30.44,30.44,0,0,1,106.17,346.22Zm0-59.92a29.53,29.53,0,1,0,29.53,29.52A29.55,29.55,0,0,0,106.17,286.3Z" style="fill:#ebebeb"></path><path d="M608.23,205.93a7.86,7.86,0,0,0,4.7-7.29,7.41,7.41,0,1,0-14.79-.07,7.85,7.85,0,0,0,4.71,7.36C591.47,207.65,592,220,592,220l26.93.13S619.52,207.64,608.23,205.93Z" style="fill:#ebebeb"></path><path d="M608.66,235.83a29.63,29.63,0,1,1,26.25-26.24A29.68,29.68,0,0,1,608.66,235.83Zm-.09-58.08a28.79,28.79,0,1,0,25.5,25.49A28.83,28.83,0,0,0,608.57,177.75Z" style="fill:#ebebeb"></path><path d="M359.33,59.52a7.44,7.44,0,0,0,4.42-6.86,7,7,0,1,0-13.92-.07,7.4,7.4,0,0,0,4.44,6.93c-10.71,1.61-10.22,13.25-10.22,13.25l25.31.11S369.94,61.12,359.33,59.52Z" style="fill:#ebebeb"></path><path d="M359.73,87.63A27.86,27.86,0,1,1,384.41,63,27.9,27.9,0,0,1,359.73,87.63ZM359.64,33a27.07,27.07,0,1,0,24,24A27.1,27.1,0,0,0,359.64,33Z" style="fill:#ebebeb"></path><path d="M206.72,419.15a6.91,6.91,0,0,0,4.11-6.39,6.49,6.49,0,1,0-13-.06,6.91,6.91,0,0,0,4.13,6.45c-10,1.5-9.51,12.33-9.51,12.33l23.56.1S216.59,420.64,206.72,419.15Z" style="fill:#ebebeb"></path><path d="M204.28,445.46a25.93,25.93,0,1,1,25.93-25.93A26,26,0,0,1,204.28,445.46Zm0-51.12a25.19,25.19,0,1,0,25.19,25.19A25.22,25.22,0,0,0,204.28,394.34Z" style="fill:#ebebeb"></path><rect x="154.36" y="327.1" width="1" height="88.15" transform="matrix(0.67, -0.74, 0.74, 0.67, -224.7, 238.2)" style="fill:#ebebeb"></rect></g><g id="freepik--Screens--inject-18"><rect x="480.01" y="41.8" width="155.96" height="73.25" style="fill:#fafafa"></rect><path d="M636,115.05s0-.45,0-1.31,0-2.14,0-3.81c0-3.35,0-8.27,0-14.6,0-12.65-.06-30.94-.11-53.53L636,42l-156,.07h0l.26-.26c0,25.78,0,50.56,0,73.25l-.25-.24,112,.11,32.34.07,8.64,0,2.24,0H636l-.74,0H633l-8.59,0-32.28.07L480,115.3h-.24v-.25c0-22.69,0-47.47,0-73.25v-.26H480l156,.07h.2v.19c0,22.64-.08,41-.11,53.65,0,6.31,0,11.22,0,14.55q0,2.49,0,3.78C636,114.63,636,115.05,636,115.05Z" style="fill:#263238"></path><path d="M636.22,63.91c0,.15-35,.26-78.1.26S480,64.06,480,63.91s35-.26,78.11-.26S636.22,63.77,636.22,63.91Z" style="fill:#263238"></path><path d="M495.4,49.53a34.88,34.88,0,0,1-4.24,4.25,34.07,34.07,0,0,1-4.59,3.86,35.66,35.66,0,0,1,4.24-4.25A34.27,34.27,0,0,1,495.4,49.53Z" style="fill:#263238"></path><path d="M495,58a34,34,0,0,1-4.25-4.24,33.37,33.37,0,0,1-3.86-4.59,36.12,36.12,0,0,1,4.24,4.24A35.62,35.62,0,0,1,495,58Z" style="fill:#263238"></path><path d="M510.88,57.82a5.68,5.68,0,0,1-.05-.65c0-.49,0-1.07-.06-1.75,0-1.49-.09-3.58-.11-6.07l.22.23-8.46,0,.26-.26h0V50.5c0,.39,0,.76,0,1.14v2.19c0,1.41,0,2.75,0,4l-.22-.22c2.49,0,4.57.07,6.06.11l1.75.06a3.65,3.65,0,0,1,.65,0,17.18,17.18,0,0,1-2.25.11c-1.48,0-3.62.09-6.21.12h-.23v-.23c0-1.24,0-2.58,0-4V49.37h0c-.23.24.32-.32.27-.26l8.46,0h.23v.22c0,2.59-.07,4.74-.11,6.21A18.08,18.08,0,0,1,510.88,57.82Z" style="fill:#263238"></path><path d="M526.68,57.07a39.86,39.86,0,0,1-9.09,0,39.86,39.86,0,0,1,9.09,0Z" style="fill:#263238"></path><rect x="76.93" y="130.03" width="141.54" height="99.38" style="fill:#fafafa"></rect><path d="M218.47,229.41s0-.63,0-1.82,0-3,0-5.26c0-4.61,0-11.37,0-20,0-17.29-.07-42.11-.11-72.28l.21.21-141.53,0h0l.26-.26c0,35.54,0,69.28,0,99.38l-.24-.24,102,.12,29.09.06,7.73,0h2l.69,0h-2.63l-7.68,0-29,.07-102.2.11h-.24v-.23c0-30.1,0-63.84,0-99.38v-.26h.27l141.53,0h.21V130c-.05,30.23-.09,55.09-.11,72.41,0,8.63,0,15.37-.06,20,0,2.28,0,4,0,5.22S218.47,229.41,218.47,229.41Z" style="fill:#263238"></path><path d="M218.68,150.09c0,.15-31.73.26-70.87.26s-70.88-.11-70.88-.26,31.73-.26,70.88-.26S218.68,150,218.68,150.09Z" style="fill:#263238"></path><path d="M90.89,137a28.25,28.25,0,0,1-3.83,3.87,27.59,27.59,0,0,1-4.18,3.49,28.91,28.91,0,0,1,3.83-3.87A29.13,29.13,0,0,1,90.89,137Z" style="fill:#263238"></path><path d="M90.57,144.73a29.37,29.37,0,0,1-3.88-3.83,29.13,29.13,0,0,1-3.49-4.18,27.91,27.91,0,0,1,3.88,3.83A29.13,29.13,0,0,1,90.57,144.73Z" style="fill:#263238"></path><path d="M105,144.57a19.52,19.52,0,0,1-.11-2.19c0-1.35-.1-3.25-.12-5.5l.23.22-7.69,0,.26-.26h0v2c0,.68,0,1.34,0,2,0,1.28,0,2.5,0,3.63l-.23-.23c2.26,0,4.15.07,5.5.12a19.52,19.52,0,0,1,2.19.11,19.73,19.73,0,0,1-2,.11c-1.33,0-3.28.09-5.64.11H97v-.22c0-1.13,0-2.35,0-3.63,0-.65,0-1.31,0-2v-2h0l.26-.26,7.69,0h.22v.22c0,2.35-.07,4.31-.11,5.64A19.73,19.73,0,0,1,105,144.57Z" style="fill:#263238"></path><path d="M119.28,143.88a16.16,16.16,0,0,1-4.12.26,16.28,16.28,0,0,1-4.13-.26,16.84,16.84,0,0,1,4.13-.26A16.72,16.72,0,0,1,119.28,143.88Z" style="fill:#263238"></path><path d="M160.41,182.65a19.86,19.86,0,1,0-37,10h0l.06.08c.76,1.28,1.71,2.2,2.68,3.55l11.53,15.27a3.58,3.58,0,0,0,5.72,0l11.34-15a42.54,42.54,0,0,0,2.88-3.82l0-.06h0A19.7,19.7,0,0,0,160.41,182.65Zm-19.86,8.65a8.74,8.74,0,1,1,8.74-8.74A8.74,8.74,0,0,1,140.55,191.3Z" style="fill:#e0e0e0"></path><rect x="487.51" y="267.97" width="181.68" height="127.57" style="fill:#fafafa"></rect><path d="M669.19,395.54s0-.8,0-2.33,0-3.79,0-6.74c0-5.92,0-14.6,0-25.7,0-22.19-.06-54.06-.11-92.8l.21.21-181.67.05h0l.26-.26c0,45.62,0,88.94,0,127.57l-.23-.24,131,.12,37.33.06,9.91,0h2.56l.87,0h-.85l-2.53,0-9.86,0-37.28.07-131.16.11h-.24v-.23c0-38.63,0-82,0-127.57v-.26h.27l181.67.05h.21V268c0,38.8-.08,70.71-.11,92.93,0,11.08,0,19.75,0,25.65,0,2.94,0,5.19,0,6.71S669.19,395.54,669.19,395.54Z" style="fill:#263238"></path><path d="M669.47,293.73c0,.14-40.74.26-91,.26s-91-.12-91-.26,40.73-.27,91-.27S669.47,293.58,669.47,293.73Z" style="fill:#263238"></path><path d="M505.43,277a47.63,47.63,0,0,1-5,4.92,45.89,45.89,0,0,1-5.32,4.53,49.38,49.38,0,0,1,5-4.91A47.94,47.94,0,0,1,505.43,277Z" style="fill:#263238"></path><path d="M505,286.84a46.45,46.45,0,0,1-4.92-5,47.35,47.35,0,0,1-4.53-5.31A92,92,0,0,1,505,286.84Z" style="fill:#263238"></path><path d="M523.47,286.63a5.1,5.1,0,0,1-.05-.76l-.06-2c0-1.73-.09-4.17-.12-7.08l.23.23-9.87,0c-.05.06.5-.49.26-.25h0v2.65c0,.87,0,1.72,0,2.55,0,1.65,0,3.21,0,4.65l-.23-.22c2.91,0,5.35.07,7.08.11l2,.06a5.1,5.1,0,0,1,.76.05,3,3,0,0,1-.66.05l-2,.06c-1.72,0-4.22.09-7.23.12h-.22v-.23c0-1.44,0-3,0-4.65v-5.2h0c-.23.23.32-.32.26-.27l9.87,0h.23v.22c0,3-.08,5.51-.12,7.23,0,.79,0,1.44-.06,2A3,3,0,0,1,523.47,286.63Z" style="fill:#263238"></path><path d="M541.87,285.75a54,54,0,0,1-10.59,0,54,54,0,0,1,10.59,0Z" style="fill:#263238"></path><rect x="583.13" y="308.65" width="64.96" height="64.96" style="fill:#e0e0e0"></rect></g><g id="freepik--Window--inject-18"><rect x="181.55" y="78.43" width="375.98" height="289.06" style="fill:#fff"></rect><path d="M557.53,367.49c0-1.79-.09-114.41-.22-289.06l.22.21-375.95,0h0l.26-.26c0,104.1,0,202.61,0,289.06l-.23-.24,376,.24-376,.23h-.24v-.23c0-86.45,0-185,0-289.06v-.26h.29l375.95,0h.21v.22C557.61,253.08,557.53,365.71,557.53,367.49Z" style="fill:#263238"></path><path d="M450.27,343.17s.32-.45,1-1.3l.55-.72c.18-.27.35-.6.55-.95a14.8,14.8,0,0,0,1.23-2.46c.19-.49.42-1,.62-1.54s.32-1.16.49-1.78a13.07,13.07,0,0,0,.41-2,20.83,20.83,0,0,0,.3-2.18,41.19,41.19,0,0,0-.48-10.53c-1.22-7.87-4.55-17.13-9.66-27.21a212.81,212.81,0,0,0-20.76-32.27,331.13,331.13,0,0,0-30.94-34.76,378.92,378.92,0,0,0-40.62-34.67c-7.59-5.57-15.58-11-24-16.07a231.17,231.17,0,0,0-26.67-14c-9.37-4.07-19.25-7.62-29.68-9.3a52.48,52.48,0,0,0-15.83-.39,29.6,29.6,0,0,0-7.64,2.21,19.07,19.07,0,0,0-10.36,11.6,29.49,29.49,0,0,0-1.34,7.85,52.49,52.49,0,0,0,2.18,15.68c2.86,10.18,7.51,19.59,12.62,28.44a232.76,232.76,0,0,0,16.94,24.92c6,7.8,12.3,15.13,18.7,22a378.39,378.39,0,0,0,39.07,36.42A331,331,0,0,0,365,327,213.08,213.08,0,0,0,399.38,344c10.59,3.93,20.18,6.19,28.13,6.5a41.32,41.32,0,0,0,10.51-.72,20.66,20.66,0,0,0,2.13-.55,11.68,11.68,0,0,0,1.92-.63l1.72-.69c.52-.26,1-.54,1.46-.79a16,16,0,0,0,2.31-1.5c.31-.24.62-.44.87-.66l.66-.62c.77-.75,1.18-1.12,1.18-1.12s-.38.4-1.14,1.16l-.64.64c-.26.22-.56.43-.88.67a14.1,14.1,0,0,1-2.3,1.54c-.46.25-.94.54-1.46.81l-1.72.7a11.82,11.82,0,0,1-1.93.66,20.84,20.84,0,0,1-2.14.56,41,41,0,0,1-10.56.78c-8-.27-17.62-2.51-28.24-6.41a211.35,211.35,0,0,1-34.53-16.9,328.7,328.7,0,0,1-38.15-26.76,378.07,378.07,0,0,1-39.17-36.43c-6.42-6.91-12.72-14.25-18.76-22.06a233.27,233.27,0,0,1-17-25c-5.13-8.88-9.8-18.33-12.69-28.58a53.2,53.2,0,0,1-2.2-15.87,30.17,30.17,0,0,1,1.37-8,19.68,19.68,0,0,1,10.68-12,30.05,30.05,0,0,1,7.82-2.27,53.38,53.38,0,0,1,16,.39c10.51,1.7,20.43,5.27,29.83,9.36a232.3,232.3,0,0,1,26.73,14c8.45,5.1,16.46,10.53,24,16.11a377.73,377.73,0,0,1,40.64,34.77A330.52,330.52,0,0,1,424.85,260a212.83,212.83,0,0,1,20.71,32.38c5.09,10.12,8.4,19.42,9.59,27.34a41.29,41.29,0,0,1,.43,10.57c0,.77-.23,1.49-.32,2.2a14.54,14.54,0,0,1-.43,2l-.51,1.78c-.2.55-.44,1.06-.63,1.55a14.72,14.72,0,0,1-1.27,2.46c-.21.35-.38.67-.57.95l-.56.71C450.62,342.75,450.27,343.17,450.27,343.17Z" style="fill:#e0e0e0"></path><path d="M488.67,250.49s-.06-.55-.15-1.62c0-.27,0-.57-.07-.9s-.14-.69-.22-1.07a14.16,14.16,0,0,0-.72-2.67c-.18-.49-.34-1-.56-1.56s-.54-1.07-.82-1.65a13.11,13.11,0,0,0-1-1.75c-.4-.58-.74-1.24-1.23-1.83a41.31,41.31,0,0,0-7.36-7.53c-6.15-5.07-14.81-9.76-25.33-13.88a213.62,213.62,0,0,0-37-10.27A330.39,330.39,0,0,0,368,200.42a378.25,378.25,0,0,0-53.4,1.17c-9.37.89-18.94,2.18-28.62,4a232.06,232.06,0,0,0-29.22,7.32c-9.7,3.2-19.44,7.13-28.34,12.81A52.54,52.54,0,0,0,216.36,236a29.85,29.85,0,0,0-4.23,6.74,19.09,19.09,0,0,0,0,15.55,29.35,29.35,0,0,0,4.23,6.75,52.33,52.33,0,0,0,12.07,10.25c8.9,5.69,18.64,9.62,28.34,12.82A232.06,232.06,0,0,0,286,295.39c9.69,1.82,19.26,3.11,28.63,4a379.7,379.7,0,0,0,53.4,1.16,330.72,330.72,0,0,0,46.23-5.34,212.35,212.35,0,0,0,37-10.27c10.51-4.12,19.17-8.81,25.32-13.87a41.63,41.63,0,0,0,7.36-7.53c.49-.59.83-1.25,1.23-1.83a13.2,13.2,0,0,0,1-1.76c.29-.57.56-1.13.82-1.65s.38-1.07.56-1.56a13.88,13.88,0,0,0,.72-2.66c.08-.39.18-.74.22-1.07s.05-.63.07-.9c.09-1.07.15-1.62.15-1.62s0,.55-.08,1.62c0,.27,0,.57-.06.91s-.13.69-.2,1.08a14.83,14.83,0,0,1-.7,2.68c-.17.5-.34,1-.55,1.58s-.53,1.08-.81,1.67a12.83,12.83,0,0,1-1,1.77,20.88,20.88,0,0,1-1.22,1.84,40.91,40.91,0,0,1-7.36,7.61c-6.15,5.12-14.82,9.86-25.35,14a212,212,0,0,1-37,10.37A327.75,327.75,0,0,1,368,301.07,379.18,379.18,0,0,1,314.55,300c-9.38-.88-19-2.17-28.67-4a232.12,232.12,0,0,1-29.31-7.33c-9.73-3.2-19.52-7.14-28.49-12.88a52.73,52.73,0,0,1-12.21-10.37,30.21,30.21,0,0,1-4.32-6.9,19.63,19.63,0,0,1,0-16.05,30.49,30.49,0,0,1,4.32-6.89,53.23,53.23,0,0,1,12.22-10.37c9-5.73,18.75-9.67,28.49-12.87A229.66,229.66,0,0,1,285.88,205c9.7-1.82,19.29-3.1,28.67-4A376.08,376.08,0,0,1,368,199.91a329.62,329.62,0,0,1,46.29,5.42,212.19,212.19,0,0,1,37,10.38c10.53,4.15,19.2,8.89,25.35,14a41.21,41.21,0,0,1,7.36,7.61,19.62,19.62,0,0,1,1.22,1.85,12.27,12.27,0,0,1,1,1.77l.81,1.67c.21.54.38,1.08.55,1.57a15.13,15.13,0,0,1,.7,2.69c.07.39.16.75.2,1.08s0,.63.06.9C488.65,249.94,488.67,250.49,488.67,250.49Z" style="fill:#e0e0e0"></path><path d="M437.79,135.11l-1.37-.87-.75-.5c-.29-.17-.63-.31-1-.48a14.11,14.11,0,0,0-2.55-1.06c-.5-.16-1-.36-1.58-.51l-1.81-.37a11.36,11.36,0,0,0-2-.27,21.73,21.73,0,0,0-2.2-.15,41,41,0,0,0-10.46,1.2c-7.77,1.76-16.79,5.72-26.48,11.52a212.19,212.19,0,0,0-30.77,22.92A330,330,0,0,0,324.3,199.8a379.4,379.4,0,0,0-31.8,42.92c-5,7.95-9.88,16.3-14.37,25.06A230.93,230.93,0,0,0,266,295.36c-3.42,9.62-6.28,19.73-7.24,30.25a52.47,52.47,0,0,0,.71,15.81,29.31,29.31,0,0,0,2.73,7.48,19,19,0,0,0,12.28,9.54,30.27,30.27,0,0,0,7.93.79A52.41,52.41,0,0,0,297.91,356c9.95-3.55,19-8.84,27.5-14.55a229.24,229.24,0,0,0,23.69-18.61c7.37-6.54,14.25-13.31,20.7-20.17a380.66,380.66,0,0,0,33.64-41.49,331.76,331.76,0,0,0,24.1-39.81,213.25,213.25,0,0,0,14.53-35.51c3.19-10.84,4.79-20.56,4.55-28.51a41.88,41.88,0,0,0-1.44-10.44,19.68,19.68,0,0,0-.7-2.09,12.59,12.59,0,0,0-.76-1.87l-.81-1.66c-.29-.5-.61-1-.88-1.4a15.33,15.33,0,0,0-1.66-2.2c-.26-.3-.49-.6-.72-.83s-.47-.43-.67-.61c-.79-.72-1.19-1.11-1.19-1.11s.43.35,1.24,1.06l.68.6c.24.24.46.53.73.82a14.64,14.64,0,0,1,1.69,2.2c.28.44.61.9.91,1.4l.82,1.66a12.76,12.76,0,0,1,.78,1.88c.22.68.55,1.35.72,2.1a41.07,41.07,0,0,1,1.5,10.48c.28,8-1.29,17.75-4.45,28.62a212.63,212.63,0,0,1-14.48,35.61,329.46,329.46,0,0,1-24.07,39.9A378.11,378.11,0,0,1,370.22,303c-6.45,6.88-13.34,13.67-20.72,20.23a231.74,231.74,0,0,1-23.74,18.67c-8.5,5.73-17.61,11.05-27.64,14.63a53,53,0,0,1-15.68,3.29,29.94,29.94,0,0,1-8.1-.81,19.68,19.68,0,0,1-12.68-9.84,30.22,30.22,0,0,1-2.79-7.64,53.23,53.23,0,0,1-.72-16c1-10.6,3.85-20.74,7.28-30.4a233.81,233.81,0,0,1,12.16-27.64c4.52-8.78,9.38-17.14,14.43-25.1a376.15,376.15,0,0,1,31.89-42.94,327.28,327.28,0,0,1,32.64-33.26,211.08,211.08,0,0,1,30.88-22.89c9.73-5.78,18.79-9.73,26.6-11.46a41.32,41.32,0,0,1,10.53-1.15,19.42,19.42,0,0,1,2.21.17,11.58,11.58,0,0,1,2,.29l1.82.38c.56.16,1.09.36,1.58.53a14.44,14.44,0,0,1,2.55,1.09c.36.18.69.33,1,.5l.75.51C437.35,134.79,437.79,135.11,437.79,135.11Z" style="fill:#e0e0e0"></path><circle cx="204.98" cy="311.62" r="5.17" style="fill:#e0e0e0"></circle><path d="M500.44,147.7a5.17,5.17,0,1,1-5.17-5.17A5.17,5.17,0,0,1,500.44,147.7Z" style="fill:#e0e0e0"></path><circle cx="239.99" cy="324.97" r="1.31" style="fill:#e0e0e0"></circle><path d="M269.35,180.05a1.32,1.32,0,1,1-1.31-1.32A1.31,1.31,0,0,1,269.35,180.05Z" style="fill:#e0e0e0"></path><path d="M474.46,250.49a1.32,1.32,0,1,1-1.32-1.32A1.32,1.32,0,0,1,474.46,250.49Z" style="fill:#e0e0e0"></path><path d="M492.72,189.21a1.31,1.31,0,1,1-1.31-1.31A1.31,1.31,0,0,1,492.72,189.21Z" style="fill:#e0e0e0"></path><ellipse cx="355.81" cy="234.47" rx="82.42" ry="82.98" style="fill:#407BFF"></ellipse><g style="opacity:0.30000000000000004"><path d="M325.29,271.45c.43-3.61,3.24-7.27,1.63-10.53-1.81-3.64-7.1-3.05-10.81-4.68-5.19-2.28-6.79-8.72-10.19-13.28-3-4.06-10.13-8.54-15.52-7.31-3.92.89-5.26,3.22-5.66,6.09l-.5-.08c-1.45-.16-3.14-.23-3.94-1.43-.92-1.4,0-3.47-1-4.84a7.71,7.71,0,0,0-2.06-1.54c-.71-.5-1.31-1.43-.88-2.19s1.27-.77,1.73-1.36a1.34,1.34,0,0,0,0-1.63c-1.49-1.76-3.14,1.83-4,2.68a8.94,8.94,0,0,1-.67.62v0c0,.15,0,.3,0,.45,0,.49,0,1,0,1.49s0,1,0,1.48,0,.81,0,1.21,0,.81,0,1.21a13.92,13.92,0,0,1,2.54,1.25c1.61.92,3.39,2.15,3.5,4a1.55,1.55,0,0,0,.17.88,1.3,1.3,0,0,0,.77.39,22.74,22.74,0,0,0,4.18.58c0,1.66.15,3.39.12,5,0,2.38-.82,4.74-.56,7.1.38,3.34,2.7,6.08,4.72,8.76,7.69,10.28,11.84,22.06,16.34,34.14h0c.83.66,2,1.55,2.88,2.16.68.49,1.31.92,2,1.38s1.31.87,2,1.31c.5.32.61.4,1.12.7-.07-.14,0,.11,0,0-1.81-4-1.82-9.49,2.08-11.46a8.41,8.41,0,0,0,2.2-1.16c1.74-1.64.32-5,2.05-6.67,1-.91,2.5-.85,3.72-1.4,2.17-1,2.88-3.79,2.71-6.19S325,273.84,325.29,271.45Z"></path></g><g style="opacity:0.30000000000000004"><path d="M278.51,210.72c1.54-1.32,4.2-1.47,5.38.17.85,1.17.66,2.78.44,4.21-.3,1.93-.6,3.86-.92,5.79a3,3,0,0,0,.08,1.74c.57,1.22,2.58,1,3.35-.11a5.34,5.34,0,0,0,.48-3.92,7.57,7.57,0,0,1,0-4c1.31-3.1,5.94-2.63,8.62-4.65,1.67-1.25,2.41-3.35,3.41-5.19s2.64-3.68,4.73-3.59c.7,0,1.39.29,2.1.26a2.8,2.8,0,0,0,1.8-4.53,5.44,5.44,0,0,1-.92-.94,1.72,1.72,0,0,1,.66-2,4.72,4.72,0,0,1,2.19-.7l5.28-.84c1.94-.3,4.43-1.3,4.16-3.24-.24-1.69-2.52-2.44-2.86-4.11a5.56,5.56,0,0,0-.22-1.23c-.53-1.07-2.14-.64-3.17-.06a2.55,2.55,0,0,0-3.87-1.24c-1,.86-1.17,2.37-1.54,3.66-.86,3.13-3.35,5.51-5.72,7.71a4.77,4.77,0,0,1-2.78,1.56c-1.08.06-2.22-1.1-1.72-2.06.34-.65,1.28-1,1.18-1.76-.13-.91-1.72-.84-2-1.72.63-2.58,3.59-3.65,5.85-5a14.13,14.13,0,0,0,6-7.36,1.86,1.86,0,0,0,.08-1.51c-.34-.65-1.22-.75-2-.75-1.75,0-3.92.2-4.56,1.83-.34.88-.09,1.87-.3,2.78-.61,2.71-4.33,3-6.6,4.63a20.13,20.13,0,0,1-2.56,2,9.52,9.52,0,0,1-3.46.56c-.21,0-.74,0-.95,0-.72,1-1.28,1.91-1.95,2.94s-1.34,2.19-1.95,3.25a81.45,81.45,0,0,0-7,16c-.64,1.95-1.19,4-1.68,6.06s-.83,3.92-1.17,6a23.56,23.56,0,0,0,1.49-5.19C276.35,214.1,277,212,278.51,210.72Z"></path></g><g style="opacity:0.30000000000000004"><path d="M347.77,173.44c.77-1,.55-2.49,1.05-3.67.84-2,3.45-2.66,4.35-4.6.35-.74.44-1.65,1-2.2s1.26-.56,1.8-1c1.22-.93.71-3.05-.58-3.87-3.23-2.07-9.18.32-12,2.34-3.59,2.6-7.1,5.72-11.88,5.42-1.31-.08-2.68-.45-3.92,0s-2,2.32-.93,3.1c.59.44,1.43.31,2.1.62,1.23.57,1.35,2.36.75,3.57s-1.68,2.13-2.39,3.29a6.17,6.17,0,0,0-.89,3.77,3.45,3.45,0,0,0,1.12,2.43c1.48,1.18,3.74.17,5-1.26s2.13-3.27,3.76-4.24a9.39,9.39,0,0,1,2.68-.94l6.23-1.48A4.49,4.49,0,0,0,347.77,173.44Z"></path></g><g style="opacity:0.30000000000000004"><path d="M438.21,233.84c0-1.19,0-2.36-.11-3.53s-.11-2.36-.22-3.52c-.09-.94-.18-1.88-.31-2.81s-.25-2.1-.41-3.07a76.24,76.24,0,0,0-1.82-8.28c-.31-1.08-.83-2.22-1.17-3.28s-.72-2.11-1.11-3.15v0h0c-.42-.78-.86-1.55-1.34-2.3-4.58-7.25-11.23-12.94-16.26-19.88-1.65-2.25-2.92-4.12-5.83-4.56-4.3-.66-6.48,1.79-9.53-2.29-.82-1.1-2.26-2.12-3.47-1.46.31.87.64,1.74.95,2.63a1.13,1.13,0,0,1,.1.57c-.06.62-1,.79-1.5.45a5.37,5.37,0,0,1-1.14-1.48,4.23,4.23,0,0,0-6.2-.51,2.33,2.33,0,0,0-1.37-1.92,2.82,2.82,0,0,1-3.54,2.28c-.25-.8,1.17-.94,1.67-1.62s-.09-1.53-.68-2.06a9,9,0,0,0-5.67-2.2c-1.32,0-2.74.22-3.89-.46-.66-.39-1.13-1-1.81-1.42-1.45-.82-3.26-.07-4.72.74-2,1.11-4.06,2.51-4.76,4.68s.86,5.1,3.13,4.83a4.49,4.49,0,0,1,1.73-.2,2.09,2.09,0,0,1,1.24,2,6.07,6.07,0,0,0,.38,2.44c.39.73,1.58,1.09,2,.4,1.07-1,.94-2.73.67-4.17s-.56-3.08.3-4.27,3.35-.81,3.18.65c-.1.87-1.08,1.49-1,2.36s1.12,1.36,2,1.32a9.8,9.8,0,0,1,2.64-.13c.88.21,1.57,1.34.94,2-1.08,1.23-3.9-.87-4.46.66a4.72,4.72,0,0,0,0,1.25c-.1,1.28-1.71,1.74-3,1.9a7.17,7.17,0,0,1-3.8-.27c-1.16-.55-1.95-2.08-1.29-3.17a1.45,1.45,0,0,0-2,.73,4.14,4.14,0,0,0-.15,2.37c-1.35-.3-2.57.85-3.34,2s-1.52,2.48-2.84,2.89-3.15-.15-3.84,1.05c-.9,1.57,1.7,3.55.79,5.1-.52.87-1.77.85-2.76,1.12-2.62.74-3.54,4.58-1.75,6.62s5.36,1.93,7.25,0c1.32-1.34,1.85-3.23,2.8-4.85s2.75-3.07,4.55-2.54a5.32,5.32,0,0,1,1.87,1.17l2.62,2.2c.56.47,1.17,1.06,1.12,1.79s-.51,1-.7,1.59c-.55,1.58,1.73,3.08,3.16,2.22s1.6-3.07.62-4.42c-1.36-1.88-4.42-2.82-4.34-5.14,1.56-1.28,4,.06,4.94,1.88s.94,3.93,1.71,5.8,2.92,3.53,4.72,2.62c-.47-1.62-.93-3.22-1.4-4.82,1.15-.87,2.46,1.64,3.83,1.22.84-.26.94-1.46.58-2.27a11,11,0,0,1-1.16-2.36c-.26-1.59,1.51-3,3.11-2.75a4.08,4.08,0,0,1,3.05,3.37,7.73,7.73,0,0,0,.42,1.86c.6,1.25,2.15,1.63,3.43,2.15s2.62,1.81,2.09,3.09c-.25.56-.84,1.1-.63,1.67s.95.73.95,1.28c0,.36-.39.61-.73.75-.86.36-1.8.47-2.63.88a2.38,2.38,0,0,0-1.53,2.11c.11,1.3,1.66,1.93,2.39,3s.6,2.4,1,3.58a13.07,13.07,0,0,0,2,2.85c2.17,3,2.68,6.74,3.73,10.24.47,1.57,1.33,3.33,2.95,3.63a5,5,0,0,0,2.61-.5c2.33-.93,4.75-1.92,6.38-3.81s2.2-5,.51-6.86a1.32,1.32,0,0,0-.79-.51,2.43,2.43,0,0,0-1.23.43,3.5,3.5,0,0,1-3.64-.78,10.37,10.37,0,0,1-2.16-3.25l-1.93-3.9a2.29,2.29,0,0,1,2.79.26,14.91,14.91,0,0,1,1.9,2.35c1.95,2.43,5.14,3.5,8.23,3.86a8,8,0,0,1,2.32.48c2.31,1.06,3,4.46,5.41,5.19a15.71,15.71,0,0,1,2.08.47,3.84,3.84,0,0,1,1.73,2.58,41.87,41.87,0,0,0,1.53,5.77c.79,1.82,2.42,3.48,4.4,3.5a4.57,4.57,0,0,0,3.26-1.42c.11-1.8.23-3.66.23-5.49C438.24,234.6,438.24,234.22,438.21,233.84Z"></path></g><g style="opacity:0.30000000000000004"><path d="M404.86,268c-1.23.24-1.47,1-2.14,1.87-.87,1.19-2.11,2.37-2.9,3.54-1.34,2-.13,5.07-1.9,6.73-.36.34-.82.57-1.14.94a2.08,2.08,0,0,0,.42,2.88,2.82,2.82,0,0,0,3.07.05,4.47,4.47,0,0,0,1.88-2.57,4.36,4.36,0,0,1,1-2.1c1-.89,2.58-.23,3.91-.42C412.66,278.17,410.23,267,404.86,268Z"></path></g><g style="opacity:0.30000000000000004"><path d="M406.77,252.48c3.26-2.81,4.57-9.17.53-10.64-1.53-.56-3.29-.11-4.81-.7-2-.76-2.9-3-3.62-5q-2.81-7.87-5.63-15.74c-1.13-3.16-2.85-6.82-6.17-7.29-1.88-.26-3.71.64-5.58,1-6.44,1.17-17.27-14.41-22.17-3.92-.68-2.86-5.32-1.79-6.8.75s-1.79,5.88-4.14,7.64c-1.79,1.34-4.41,1.42-5.88,3.11-1,1.19-1.2,2.88-1.33,4.45q-.37,4.49-.74,9c-.2,2.42-.37,5,.83,7.11s4.32,3.28,6.11,1.65c.83-.75,1.17-1.89,1.85-2.78a4.67,4.67,0,0,1,4.81-1.66,8.15,8.15,0,0,1,3.66,2.58c8.38,9,11.38,21.87,11.75,34.19a19.61,19.61,0,0,0,.9,6.66c1,2.46,3,4.44,3.62,7,.47,2,0,4.14.88,6,1.56,3.39,6.77,3.54,9.61,1.1s3.82-6.35,4.39-10,1-7.59,3-10.7c1.28-1.93,3.17-3.48,4.06-5.61,1.26-3,.33-6.53,1.49-9.56C399,257.07,403.52,255.3,406.77,252.48Z"></path></g><path d="M438.13,234.55s0-.46-.06-1.34,0-2.21-.17-3.93a85.29,85.29,0,0,0-2.33-14.92A81.52,81.52,0,0,0,432.21,204a79.2,79.2,0,0,0-5.69-11.66,83.47,83.47,0,0,0-20.82-23.58A81.5,81.5,0,0,0,371,153.15,81.25,81.25,0,0,0,349.78,152a80.08,80.08,0,0,0-11,1.57,87.46,87.46,0,0,0-11,3.18,82.32,82.32,0,0,0-38.14,29,80.31,80.31,0,0,0-6.66,10.86c-1,1.89-1.86,3.87-2.74,5.84s-1.59,4-2.25,6.11a82.47,82.47,0,0,0-3.1,12.76,91.46,91.46,0,0,0-1.06,13.27,90.08,90.08,0,0,0,1.06,13.27,81.74,81.74,0,0,0,3.1,12.77c.65,2.08,1.46,4.09,2.25,6.1s1.73,3.95,2.73,5.85a80.31,80.31,0,0,0,6.66,10.86,82.37,82.37,0,0,0,38.15,29,87.12,87.12,0,0,0,11,3.18,79.73,79.73,0,0,0,11,1.57,80.87,80.87,0,0,0,21.27-1.19,81.53,81.53,0,0,0,34.65-15.57,83.48,83.48,0,0,0,20.82-23.59,79.3,79.3,0,0,0,5.7-11.66,83.41,83.41,0,0,0,3.35-10.38,85.29,85.29,0,0,0,2.33-14.92c.15-1.72.12-3,.17-3.93s.06-1.34.06-1.34,0,.45,0,1.34,0,2.21-.13,3.94a82.07,82.07,0,0,1-5.55,25.38,79.6,79.6,0,0,1-5.68,11.72,83.65,83.65,0,0,1-20.84,23.73,81.92,81.92,0,0,1-34.8,15.71,81.72,81.72,0,0,1-21.38,1.22A80.71,80.71,0,0,1,338.64,316a86.39,86.39,0,0,1-11.08-3.19,82.73,82.73,0,0,1-38.4-29.14,79.71,79.71,0,0,1-6.7-10.93c-1-1.9-1.88-3.89-2.76-5.88s-1.61-4.05-2.26-6.14a81.91,81.91,0,0,1-3.12-12.85,89.81,89.81,0,0,1-1.07-13.35,91.05,91.05,0,0,1,1.07-13.35,82.76,82.76,0,0,1,3.12-12.85c.66-2.09,1.47-4.11,2.27-6.13s1.74-4,2.75-5.88a80.71,80.71,0,0,1,6.7-10.93,82.77,82.77,0,0,1,38.4-29.13,86.39,86.39,0,0,1,11.08-3.19,80.49,80.49,0,0,1,11.11-1.57,81.61,81.61,0,0,1,21.37,1.22,81.92,81.92,0,0,1,34.8,15.7,83.7,83.7,0,0,1,20.85,23.73,79.6,79.6,0,0,1,5.68,11.72A82.24,82.24,0,0,1,438,229.27c.14,1.73.09,3,.13,3.94S438.13,234.55,438.13,234.55Z" style="fill:#263238"></path><path d="M359,317.6c-.15,0-.26-36.83-.26-82.26s.11-82.27.26-82.27.26,36.83.26,82.27S359.11,317.6,359,317.6Z" style="fill:#263238"></path><path d="M363.68,317.16s.13-.11.41-.3l1.22-.83c1.09-.71,2.64-1.84,4.59-3.35a89.78,89.78,0,0,0,14.69-14.78,96.42,96.42,0,0,0,15-26.93,117.53,117.53,0,0,0,6.64-37.16c.26-13.44-1.09-26.33-4.21-37.56a76.18,76.18,0,0,0-13.84-27.44,48,48,0,0,0-8.49-8.26,45.07,45.07,0,0,0-7.64-4.67,51.38,51.38,0,0,0-5.25-2.15l-1.4-.48-.48-.18.49.13,1.42.43a48.35,48.35,0,0,1,5.31,2.06,46,46,0,0,1,7.73,4.62,48.46,48.46,0,0,1,8.6,8.27,76.18,76.18,0,0,1,14,27.54c3.17,11.29,4.53,24.21,4.27,37.71A117.07,117.07,0,0,1,400,271.14a96.37,96.37,0,0,1-15.16,27A87.87,87.87,0,0,1,370,312.84c-2,1.49-3.55,2.59-4.66,3.27l-1.25.79Z" style="fill:#263238"></path><path d="M356.12,317.44l-.45-.25-1.27-.81c-1.13-.69-2.74-1.81-4.77-3.3a102.34,102.34,0,0,1-24.35-26.39,77.64,77.64,0,0,1-7.57-15.12,108.93,108.93,0,0,1-4.95-18,129.75,129.75,0,0,1-2-20c-.27-13.74,1.12-26.92,4.45-38.39a78.2,78.2,0,0,1,6.36-15.67,53.5,53.5,0,0,1,8.65-11.92,54.64,54.64,0,0,1,17.49-12.05c2.32-1,4.17-1.63,5.43-2l1.45-.43.5-.13-.49.18-1.42.48c-1.26.42-3.09,1.1-5.39,2.11a55.14,55.14,0,0,0-17.3,12.11,53.56,53.56,0,0,0-8.54,11.87,78.52,78.52,0,0,0-6.28,15.6c-3.28,11.41-4.66,24.55-4.39,38.25a130.1,130.1,0,0,0,2,19.88,109.21,109.21,0,0,0,4.9,17.94,77.77,77.77,0,0,0,7.49,15.06,104,104,0,0,0,24.1,26.46c2,1.51,3.59,2.66,4.7,3.38l1.25.84C356,317.33,356.12,317.44,356.12,317.44Z" style="fill:#263238"></path><path d="M438.24,233.09c0,.15-36.68.26-81.9.26s-81.91-.11-81.91-.26,36.66-.26,81.91-.26S438.24,233,438.24,233.09Z" style="fill:#263238"></path><path d="M425.63,190.82c0,.15-31.29.26-69.87.26s-69.88-.11-69.88-.26,31.28-.26,69.88-.26S425.63,190.68,425.63,190.82Z" style="fill:#263238"></path><path d="M426.53,276.16c0,.15-32,.26-71.46.26s-71.47-.11-71.47-.26,32-.26,71.47-.26S426.53,276,426.53,276.16Z" style="fill:#263238"></path><path d="M406.59,264h-103a26.42,26.42,0,0,1-26.43-26.42h0a26.43,26.43,0,0,1,26.43-26.43h103A26.42,26.42,0,0,1,433,237.59h0A26.42,26.42,0,0,1,406.59,264Z" style="fill:#fff"></path><path d="M406.59,264l1-.07a23.11,23.11,0,0,0,2.8-.28,25.81,25.81,0,0,0,10.07-3.7,28.79,28.79,0,0,0,3-2.16l1.47-1.35c.52-.45.94-1,1.43-1.52a26.47,26.47,0,0,0,4.76-7.9,26,26,0,0,0,1.71-10.42,26.6,26.6,0,0,0-3.07-11.42,27.08,27.08,0,0,0-8.79-9.55,29,29,0,0,0-6.28-3,26.16,26.16,0,0,0-7.1-1.23c-9.88-.08-20.47,0-31.59,0l-72.41,0a26.36,26.36,0,0,0-17.24,6.51,26.7,26.7,0,0,0-5.75,7.14,26.19,26.19,0,0,0-2.85,8.56,25.88,25.88,0,0,0,.14,8.87,26.69,26.69,0,0,0,3,8.15,26.41,26.41,0,0,0,12.44,11,28.33,28.33,0,0,0,7.9,2c2.67.2,5.37.09,8,.12h15.34l27.53,0,39.87.08,10.84,0,2.81,0,1,0-1,0-2.81,0-10.84.05-39.87.08-27.53,0H309.23c-2.64,0-5.3.09-8-.11a28.87,28.87,0,0,1-8-2,26.86,26.86,0,0,1-15.8-19.55A26.53,26.53,0,0,1,286,217.54a26.89,26.89,0,0,1,17.58-6.64l72.41,0c11.13,0,21.7,0,31.61.07a26.59,26.59,0,0,1,7.21,1.26,26.06,26.06,0,0,1,3.31,1.35,25.27,25.27,0,0,1,3.06,1.71,26.42,26.42,0,0,1,12,21.29,26.38,26.38,0,0,1-6.62,18.49c-.5.52-.93,1.08-1.45,1.53l-1.5,1.35a26.81,26.81,0,0,1-3.05,2.16,25.42,25.42,0,0,1-10.15,3.63,19.8,19.8,0,0,1-2.81.23Z" style="fill:#263238"></path><path d="M338.94,224.76l-8.14,22.88H323l-4.3-12.45-4.48,12.45h-7.76l-8.15-22.88h7.6l4.68,13.84,4.86-13.84h6.84l4.72,14,4.86-14Z" style="fill:#263238"></path><path d="M378.57,224.76l-8.14,22.88h-7.77l-4.3-12.45-4.48,12.45h-7.76L338,224.76h7.6l4.69,13.84,4.85-13.84H362l4.72,14,4.86-14Z" style="fill:#263238"></path><path d="M418.21,224.76l-8.15,22.88h-7.77L398,235.19l-4.47,12.45h-7.77l-8.15-22.88h7.6l4.69,13.84,4.85-13.84h6.84l4.72,14,4.86-14Z" style="fill:#263238"></path><path d="M312.71,288.49,277,298.89a1.92,1.92,0,0,0-.79,3.22l24.37,23.55a1.92,1.92,0,0,0,3.15-.78l11.35-33.94A1.92,1.92,0,0,0,312.71,288.49Z" style="fill:#263238"></path><polygon points="263.21 327.2 288.38 303.81 298.41 313.55 273.36 337.57 263.21 327.2" style="fill:#263238"></polygon><path d="M557.53,105.07c0,.14-83.73.26-187,.26s-187-.12-187-.26,83.7-.26,187-.26S557.53,104.92,557.53,105.07Z" style="fill:#263238"></path><path d="M202.17,88.79a66.68,66.68,0,0,1-5.74,5.63,61,61,0,0,1-6.1,5.24A66.68,66.68,0,0,1,196.07,94,61,61,0,0,1,202.17,88.79Z" style="fill:#263238"></path><path d="M201.69,100.14a60.33,60.33,0,0,1-5.63-5.74,62.61,62.61,0,0,1-5.25-6.09,60.33,60.33,0,0,1,5.63,5.74A64.35,64.35,0,0,1,201.69,100.14Z" style="fill:#263238"></path><path d="M222.93,99.9a6.53,6.53,0,0,1-.05-.86c0-.61,0-1.39-.06-2.33,0-2-.09-4.81-.12-8.16l.23.22-11.35,0c-.06,0,.49-.49.26-.26h0v1.52c0,.51,0,1,0,1.52v2.94c0,1.9,0,3.69,0,5.35l-.22-.22c3.35,0,6.16.07,8.16.11l2.33.06a6.53,6.53,0,0,1,.86.05,3.22,3.22,0,0,1-.77,0l-2.28.06c-2,0-4.85.09-8.3.12h-.23V99.9c0-1.66,0-3.45,0-5.35,0-1,0-1.94,0-2.94v-3h0c-.24.23.31-.32.26-.26l11.35,0h.23v.23c0,3.45-.08,6.32-.12,8.3q0,1.38-.06,2.28A4.13,4.13,0,0,1,222.93,99.9Z" style="fill:#263238"></path><path d="M244.11,98.89a35.14,35.14,0,0,1-6.09.26,35.21,35.21,0,0,1-6.1-.26,36.45,36.45,0,0,1,6.1-.26A36.37,36.37,0,0,1,244.11,98.89Z" style="fill:#263238"></path><path d="M316.09,119.54h2.27v9.82h-2.27Z" style="fill:#263238"></path><path d="M328.25,125v4.32h-2.19v-4c0-1.22-.56-1.78-1.53-1.78s-1.81.64-1.81,2v3.73h-2.19v-7.55h2.09v.89a3.3,3.3,0,0,1,2.5-1C326.9,121.7,328.25,122.74,328.25,125Z" style="fill:#263238"></path><path d="M335.09,129a3.08,3.08,0,0,1-1.78.48,2.49,2.49,0,0,1-2.82-2.71v-3.1h-1.16V122h1.16v-1.83h2.19V122h1.88v1.68h-1.88v3.08a.88.88,0,0,0,.94,1,1.49,1.49,0,0,0,.88-.28Z" style="fill:#263238"></path><path d="M343.43,126.2h-5.7a2,2,0,0,0,2.16,1.52,2.55,2.55,0,0,0,1.89-.73l1.16,1.26a3.94,3.94,0,0,1-3.11,1.22c-2.61,0-4.3-1.64-4.3-3.88a3.84,3.84,0,0,1,4-3.89,3.74,3.74,0,0,1,3.93,3.91C343.48,125.78,343.45,126,343.43,126.2Zm-5.73-1.27h3.72a1.89,1.89,0,0,0-3.72,0Z" style="fill:#263238"></path><path d="M349.62,121.7v2c-.18,0-.32,0-.49,0a1.86,1.86,0,0,0-2,2.11v3.56h-2.18v-7.55H347v1A3,3,0,0,1,349.62,121.7Z" style="fill:#263238"></path><path d="M358.64,125v4.32h-2.19v-4c0-1.22-.56-1.78-1.53-1.78s-1.81.64-1.81,2v3.73h-2.19v-7.55H353v.89a3.3,3.3,0,0,1,2.5-1C357.29,121.7,358.64,122.74,358.64,125Z" style="fill:#263238"></path><path d="M368.05,126.2h-5.71a2,2,0,0,0,2.16,1.52,2.55,2.55,0,0,0,1.89-.73l1.17,1.26a4,4,0,0,1-3.12,1.22c-2.6,0-4.3-1.64-4.3-3.88a3.84,3.84,0,0,1,4-3.89,3.74,3.74,0,0,1,3.93,3.91C368.09,125.78,368.06,126,368.05,126.2Zm-5.74-1.27H366a1.89,1.89,0,0,0-3.72,0Z" style="fill:#263238"></path><path d="M374.42,129a3.09,3.09,0,0,1-1.79.48,2.48,2.48,0,0,1-2.81-2.71v-3.1h-1.17V122h1.17v-1.83H372V122h1.88v1.68H372v3.08a.88.88,0,0,0,.94,1,1.5,1.5,0,0,0,.89-.28Z" style="fill:#263238"></path><path d="M379.89,119.54H384c3.16,0,5.3,2,5.3,4.91s-2.14,4.91-5.3,4.91h-4.13Zm4.05,8.6c2.42,0,4-1.49,4-3.69s-1.56-3.69-4-3.69h-2.65v7.38Z" style="fill:#263238"></path><path d="M397.16,124.87v4.49h-1.27v-1a2.77,2.77,0,0,1-2.44,1.06c-1.69,0-2.75-.9-2.75-2.19s.77-2.17,3-2.17h2.13v-.27c0-1.13-.66-1.79-2-1.79a3.74,3.74,0,0,0-2.35.8l-.56-1a4.93,4.93,0,0,1,3.07-1C396,121.86,397.16,122.84,397.16,124.87Zm-1.34,2.22v-1h-2.08c-1.33,0-1.71.52-1.71,1.15s.62,1.2,1.64,1.2A2.17,2.17,0,0,0,395.82,127.09Z" style="fill:#263238"></path><path d="M406.1,121.93l-3.61,8.17c-.66,1.57-1.51,2.06-2.65,2.06a2.81,2.81,0,0,1-1.9-.68l.57-1a1.89,1.89,0,0,0,1.33.54c.65,0,1.05-.29,1.42-1.15l.24-.52-3.28-7.41h1.4l2.59,5.94,2.57-5.94Z" style="fill:#263238"></path></g><g id="freepik--Character--inject-18"><path d="M485.25,211.46s-12.59,3.4-14.95,12.9c-3.73,15-15.13,59.33-15.13,59.33l-12,9.74,7.68,12.73s13.41-4.41,19-11.62,11.33-34.14,11.33-34.14Z" style="fill:#455a64"></path><path d="M508.28,144.16c3-3.43,10.52-3.1,12.36-.94a5.75,5.75,0,0,1,7.58,2.32l8.06,1.57a8.26,8.26,0,0,1,3.88,1.46,2.86,2.86,0,0,1,.77,3.72c2.84.67,4.05,4.85,2,6.93a3,3,0,0,1-.35,4.4,30.28,30.28,0,0,1,5.38,8.8,6.23,6.23,0,0,1,.5,4.22C548,178,546.23,179,545,178.16a3.59,3.59,0,0,1,.26,3.84c1.35,0,1.81,2.09.9,3.09s-2.42,1.15-3.78,1.15a6.54,6.54,0,0,0-3.92.77,1.29,1.29,0,0,0,.46.85,5.56,5.56,0,0,1,1.43,7.56l-.43.64c-.76,1.13-2.68,2.2-3.87,2.86-3,1.67-4.87,1.41-8.28,2,1,2.19-4.45,7.21-10.93,2.56A122.83,122.83,0,0,1,482,209c-1.87.05-4.13-.15-5-1.81a4.65,4.65,0,0,1-4.31-1.3,13.86,13.86,0,0,1-2.61-3.91,8.16,8.16,0,0,1-6.06-7.22,10.11,10.11,0,0,1-4-7.09,5.93,5.93,0,0,1-3.59-7.92,36,36,0,0,1,3.64-11.15c-2.16-.42-3-3.3-2.2-5.33s2.76-3.38,4.59-4.6c-1.6.46-3.05-1.52-2.71-3.15s1.78-2.78,3.18-3.67a30.39,30.39,0,0,1,6.59-3.13c.7-2.85,4.24-6.16,6.86-7.47,10.57-5.31,18-6.77,31.88,2.88" style="fill:#263238"></path><path d="M518.77,160.89a4.33,4.33,0,0,0-3.76-4.5l-22.83-6.47c-7.34-1-12.5,7.94-13.17,15.32-.75,8.19-1.35,18.23-.55,24.39a15.93,15.93,0,0,0,12.62,14.11s-.19,8.94-.19,8.94l-.3,10.4c3.51-.5,26.06-11.28,26.06-11.28Z" style="fill:#ffbe9d"></path><path d="M491.21,183.75a11.4,11.4,0,0,0-2.74-.57c-.44-.06-.85-.16-.91-.46a2.22,2.22,0,0,1,.33-1.28c.43-1,.89-2.12,1.37-3.27,1.92-4.65,3.32-8.49,3.13-8.56s-1.89,3.64-3.81,8.29l-1.32,3.29a2.53,2.53,0,0,0-.28,1.7,1.11,1.11,0,0,0,.7.66,3.15,3.15,0,0,0,.73.12A10.85,10.85,0,0,0,491.21,183.75Z" style="fill:#263238"></path><path d="M491.08,203.74s6.66.87,15-3.83c0,0-2.25,9.12-15.1,8.09Z" style="fill:#eb996e"></path><path d="M496.75,164.7c.16.46,1.86.29,3.85.59s3.58.89,3.86.48c.12-.19-.14-.64-.78-1.1a6.74,6.74,0,0,0-5.87-.82C497.07,164.12,496.69,164.48,496.75,164.7Z" style="fill:#263238"></path><path d="M481.8,164.69c.29.4,1.48,0,2.88.05s2.6.33,2.88-.06c.13-.2-.05-.59-.56-1a4,4,0,0,0-2.32-.7,4,4,0,0,0-2.32.71C481.85,164.11,481.68,164.5,481.8,164.69Z" style="fill:#263238"></path><path d="M473.57,171.24a8.46,8.46,0,0,1,2-5.33,31.56,31.56,0,0,0,2.24-2.24c1.36-1.85,1.12-4.37,1.68-6.59a9.27,9.27,0,0,1,5.66-6.35c2.29-.86,4.91-.8,7.06-2,1.59-.88,2.79-2.37,4.42-3.15,3.19-1.52,7,.06,10,1.82.64,2.4-.85,4.51-2.29,6.54a8.55,8.55,0,0,1-6.28,3.55c-1.92.15-4.17-.25-5.5,1.15s-.81,4-1.95,5.67c-1.63,2.4-5.45,1.56-7.93,3.06-1.91,1.16-2.69,3.49-3.63,5.52s-2.58,4.15-4.82,4.08A24.84,24.84,0,0,1,473.57,171.24Z" style="fill:#263238"></path><path d="M501.87,151.89a43.59,43.59,0,0,1,16.54,2.71,6.21,6.21,0,0,1,5,7c0,4.62-1.75,10.29-3.44,14.59l-5.7,3.54c-4.45-1-2.54-8.67-2.39-12.51a9.05,9.05,0,0,1-5.42-7.92A10.06,10.06,0,0,1,501.87,151.89Z" style="fill:#263238"></path><path d="M514.36,178.06c.13-2.64,3.36-3.21,5.65-1.88,1.26.72,2.22,2.18,2.11,5-.31,7.47-7.76,5.62-7.76,5.41S514.21,181.15,514.36,178.06Z" style="fill:#ffbe9d"></path><path d="M516.76,183.84s.13.1.34.2a1.3,1.3,0,0,0,1,.07,3.26,3.26,0,0,0,1.61-2.83,4.38,4.38,0,0,0-.29-1.88,1.48,1.48,0,0,0-.94-1,.65.65,0,0,0-.78.32c-.11.21-.07.36-.11.37s-.16-.13-.08-.44a.81.81,0,0,1,.31-.46,1,1,0,0,1,.73-.16,1.85,1.85,0,0,1,1.31,1.22,4.48,4.48,0,0,1,.37,2.1c-.11,1.51-.94,2.88-2,3.15a1.36,1.36,0,0,1-1.18-.25C516.77,184,516.73,183.85,516.76,183.84Z" style="fill:#eb996e"></path><path d="M517.64,187a.66.66,0,0,1,0,.09,1.08,1.08,0,0,0,.11.29,1.8,1.8,0,0,0,.88.76,4.45,4.45,0,0,0,1.85.35,6.3,6.3,0,0,0,1.2-.09A4.48,4.48,0,0,0,523,188l-.09,0a3.82,3.82,0,0,0,2,2.68,3.76,3.76,0,0,0,3.93-.42l-.12,0a1.52,1.52,0,0,0,1,.64,2.15,2.15,0,0,0,1.2-.12,1.9,1.9,0,0,0,1-.81,2.42,2.42,0,0,0,.36-1.23,3.8,3.8,0,0,0-.85-2.48,11.24,11.24,0,0,0-2-1.89v.18a2.66,2.66,0,0,0,1.16-1.79,3.88,3.88,0,0,0-.25-2.2,5.77,5.77,0,0,0-1.34-1.84,16.85,16.85,0,0,0-1.79-1.47l0,.17a2.87,2.87,0,0,0,.7-2.18,4,4,0,0,0-.88-2.21,10,10,0,0,0-3.68-2.48l.06.12a5,5,0,0,0-5.49-6l.12.12A4.28,4.28,0,0,0,517,161a4.17,4.17,0,0,0-3.18-1.5l.1.09a4.23,4.23,0,0,0-1.75-3.23,4.06,4.06,0,0,0-3.14-.81l.09.07a4.09,4.09,0,0,0-.64-1.91,5.29,5.29,0,0,0-1.15-1.35,4.22,4.22,0,0,0-2.57-1.06l-.28,0-.27,0a3.16,3.16,0,0,0-.47.06,4.78,4.78,0,0,0-.71.21l-.41.19-.14.07.14,0,.42-.17a6.9,6.9,0,0,1,.71-.19,3.23,3.23,0,0,1,.47-.05l.26,0,.27,0a4.18,4.18,0,0,1,2.5,1.07,5.1,5.1,0,0,1,1.12,1.33,3.93,3.93,0,0,1,.6,1.84v.08H509a4,4,0,0,1,3,.8,4.06,4.06,0,0,1,1.66,3.1v.09h.09a4.26,4.26,0,0,1,4,4.89l0,.15.15,0a4.74,4.74,0,0,1,5.24,5.77l0,.09.08,0a9.83,9.83,0,0,1,3.6,2.42,3.87,3.87,0,0,1,.83,2.08,2.57,2.57,0,0,1-.64,2l-.09.09.11.08a8.79,8.79,0,0,1,3.06,3.22,3.69,3.69,0,0,1,.24,2.07,2.47,2.47,0,0,1-1.06,1.65l-.13.08.12.09a10.84,10.84,0,0,1,2,1.84,3.66,3.66,0,0,1,.82,2.35,2,2,0,0,1-1.2,1.88,1.65,1.65,0,0,1-2-.44l0-.08-.07.06a3.58,3.58,0,0,1-5.73-2.15v-.09l-.08,0a4.45,4.45,0,0,1-1.26.42,6.17,6.17,0,0,1-1.18.11,4.77,4.77,0,0,1-1.83-.32,1.68,1.68,0,0,1-.87-.72C517.68,187.1,517.66,187,517.64,187Z" style="fill:#455a64"></path><path d="M546,178.5a3.11,3.11,0,0,0,.27-.45,3.81,3.81,0,0,0,.37-1.49,3.68,3.68,0,0,0-.65-2.33,4,4,0,0,0-2.73-1.68l.06.09a5.2,5.2,0,0,0-2.22-5.21,11.24,11.24,0,0,0-2.06-.92,4.24,4.24,0,0,1-1-.57,2.5,2.5,0,0,1-.69-.91c-.35-.71-.47-1.55-.9-2.32a4.56,4.56,0,0,0-4.59-2.18l.13.13a6,6,0,0,0-6.74-6.68l.13.12a5.26,5.26,0,0,0-8.25-4.78h.12a7.29,7.29,0,0,0-2.64-1.55,10.8,10.8,0,0,0-2.69-.57,12.56,12.56,0,0,0-4.42.37,9,9,0,0,0-2.61,1.14,4.56,4.56,0,0,0-.6.45l-.2.17s.28-.22.83-.57a9,9,0,0,1,2.61-1.08,12.7,12.7,0,0,1,4.38-.32,10.21,10.21,0,0,1,2.65.58,7,7,0,0,1,2.56,1.52l0,.05.07,0a5.05,5.05,0,0,1,7.92,4.6v.14l.13,0a5.76,5.76,0,0,1,6.49,6.43l0,.15.15,0a4.33,4.33,0,0,1,4.36,2.07c.41.71.54,1.55.9,2.3a2.71,2.71,0,0,0,.76,1,4.28,4.28,0,0,0,1,.59,11.53,11.53,0,0,1,2,.9,4.92,4.92,0,0,1,1.44,1.47,5,5,0,0,1,.74,3.55l0,.08h.08a3.85,3.85,0,0,1,2.66,1.6,3.74,3.74,0,0,1,.66,2.26,3.9,3.9,0,0,1-.33,1.47C546.06,178.35,546,178.5,546,178.5Z" style="fill:#455a64"></path><path d="M474.56,181.72a.76.76,0,0,0,0-.62,1.57,1.57,0,0,0-.45-.61,2.69,2.69,0,0,0-.93-.45,4.3,4.3,0,0,1-1.17-.46,2.33,2.33,0,0,1-.86-1.19,4.47,4.47,0,0,1-.22-1.7c0-.62.1-1.28.09-2a20,20,0,0,0-1-4.4,6.14,6.14,0,0,1-.14-2.46,3,3,0,0,1,1.32-2.12,10.8,10.8,0,0,1,2.6-.93,4.44,4.44,0,0,0,1.33-.65,3,3,0,0,0,.92-1.2,14.17,14.17,0,0,0,.74-3,5,5,0,0,1,.49-1.42,2.28,2.28,0,0,1,1.09-1,8.2,8.2,0,0,1,2.06-.31,3.49,3.49,0,0,0,1-.28,2.11,2.11,0,0,0,.82-.72,7.57,7.57,0,0,0,.75-1.92,4.58,4.58,0,0,1,4.13-3.31,4.63,4.63,0,0,1,3.19,1.1l.1.09.06-.13a7.11,7.11,0,0,1,4.37-3.9,6.6,6.6,0,0,1,2.49-.26,6,6,0,0,1,2.06.54,5.3,5.3,0,0,1,2.22,2,4.29,4.29,0,0,1,.38.7l.09.18,0,.06,0-.07-.08-.19a4.28,4.28,0,0,0-.36-.71,5.13,5.13,0,0,0-2.22-2,5.94,5.94,0,0,0-2.09-.57,6.54,6.54,0,0,0-2.56.24,7.22,7.22,0,0,0-4.5,4l.15,0a4.83,4.83,0,0,0-3.32-1.16,4.72,4.72,0,0,0-3.39,1.68,4.86,4.86,0,0,0-.95,1.78,7.35,7.35,0,0,1-.73,1.86,2.22,2.22,0,0,1-1.7.89,8.89,8.89,0,0,0-2.12.33,2.55,2.55,0,0,0-1.19,1.08,5.19,5.19,0,0,0-.52,1.49,14.58,14.58,0,0,1-.72,2.91A2.81,2.81,0,0,1,475,164a4.33,4.33,0,0,1-1.26.61,11.19,11.19,0,0,0-2.65,1,2.87,2.87,0,0,0-1,1,3.7,3.7,0,0,0-.44,1.27,6.47,6.47,0,0,0,.15,2.53,20.19,20.19,0,0,1,1.05,4.36c0,.68-.06,1.34-.07,2a4.5,4.5,0,0,0,.24,1.75,2.4,2.4,0,0,0,.92,1.24,4.44,4.44,0,0,0,1.21.46,2.4,2.4,0,0,1,.91.42,1.5,1.5,0,0,1,.45.57A.89.89,0,0,1,474.56,181.72Z" style="fill:#455a64"></path><path d="M459.87,170.39l.07-.14.2-.42.75-1.64c.32-.7.69-1.59,1.21-2.55a6.68,6.68,0,0,1,2.46-2.73c.6-.33,1.29-.56,2-.89a4.39,4.39,0,0,0,1-.61,2.56,2.56,0,0,0,.75-1c.34-.78.33-1.66.6-2.46a2.19,2.19,0,0,1,.7-1,4.16,4.16,0,0,1,1.2-.57,8,8,0,0,0,1.31-.53,2.46,2.46,0,0,0,1-1.07,11.15,11.15,0,0,0,.59-2.91,3.65,3.65,0,0,1,.47-1.38,1.89,1.89,0,0,1,1.18-.8c1-.22,2,.1,3.13-.09a2.67,2.67,0,0,0,1.42-.78,6.63,6.63,0,0,0,.91-1.3,15,15,0,0,1,.8-1.3,2.83,2.83,0,0,1,1.08-1,4.42,4.42,0,0,1,2.83,0,6.52,6.52,0,0,0,2.84.2,7.59,7.59,0,0,0,2.45-1.16A12.69,12.69,0,0,1,493,143a7.69,7.69,0,0,1,4.43-.21,8.28,8.28,0,0,1,3.31,1.63,9.26,9.26,0,0,1,1.85,2.12,9.71,9.71,0,0,1,.8,1.59l.19.43.06.14s0-.05,0-.15-.1-.25-.16-.44a10.35,10.35,0,0,0-.77-1.62,9.53,9.53,0,0,0-1.84-2.17,8.5,8.5,0,0,0-3.36-1.69,7.86,7.86,0,0,0-4.53.2,12.9,12.9,0,0,0-2.22,1.26,7.4,7.4,0,0,1-2.39,1.13,6.34,6.34,0,0,1-2.75-.21,9.67,9.67,0,0,0-1.46-.23,3.13,3.13,0,0,0-1.5.27,3,3,0,0,0-1.17,1,13,13,0,0,0-.81,1.32,6.61,6.61,0,0,1-.88,1.26,2.38,2.38,0,0,1-1.3.72c-1,.19-2.08-.14-3.14.09a2.1,2.1,0,0,0-1.31.89,3.85,3.85,0,0,0-.51,1.47,11.17,11.17,0,0,1-.56,2.85,2.19,2.19,0,0,1-.92,1,7.06,7.06,0,0,1-1.27.52,4.15,4.15,0,0,0-1.25.61,2.35,2.35,0,0,0-.77,1.13c-.27.86-.27,1.72-.59,2.46a3.05,3.05,0,0,1-1.66,1.52c-.68.32-1.38.55-2,.9a6.78,6.78,0,0,0-2.49,2.81c-.52,1-.87,1.87-1.19,2.58s-.53,1.26-.7,1.65c-.07.18-.13.32-.18.43A1,1,0,0,0,459.87,170.39Z" style="fill:#455a64"></path><path d="M467.69,162.44l-.14,0a.85.85,0,0,0-.39.09,1.62,1.62,0,0,0-.72,1.34,3.75,3.75,0,0,0,.17,1.11,4.84,4.84,0,0,1,.22,1.29,2.85,2.85,0,0,1-.51,1.39c-.28.46-.64.91-.93,1.45a2.13,2.13,0,0,0-.15,1.88c.24.63.72,1.16.95,1.8a2.76,2.76,0,0,1-.17,2.06c-.28.69-.68,1.36-.95,2.12a3.3,3.3,0,0,0-.22,1.22,3,3,0,0,0,.3,1.23,13.61,13.61,0,0,0,1.46,2.1,3.44,3.44,0,0,1,.82,2.36,11.13,11.13,0,0,1-.86,2.53,3.83,3.83,0,0,0-.25,1.38,3,3,0,0,0,.37,1.34,11.36,11.36,0,0,0,1.65,2.08,6.11,6.11,0,0,1,1.34,2.1,18.58,18.58,0,0,0,.81,2.31,2.78,2.78,0,0,0,.77.93,3.33,3.33,0,0,0,1.07.49,9.75,9.75,0,0,1,1,.36,3.63,3.63,0,0,1,.87.57,7.19,7.19,0,0,1,1.25,1.58c.36.55.68,1.09,1.05,1.57a5.13,5.13,0,0,0,2.63,1.88,5.64,5.64,0,0,0,2.45.19,5.18,5.18,0,0,0,1.48-.46,4.59,4.59,0,0,0,.46-.28,5.41,5.41,0,0,1-4.35.42,5,5,0,0,1-2.54-1.84c-.36-.48-.68-1-1-1.58a7.93,7.93,0,0,0-1.27-1.62,3.87,3.87,0,0,0-.92-.61,10.24,10.24,0,0,0-1.06-.37,3.15,3.15,0,0,1-1-.46,2.55,2.55,0,0,1-.72-.87,18.08,18.08,0,0,1-.79-2.29,6.27,6.27,0,0,0-1.38-2.16,11.36,11.36,0,0,1-1.61-2.05,3,3,0,0,1-.35-1.24,3.65,3.65,0,0,1,.25-1.29,11.61,11.61,0,0,0,.87-2.59,2.83,2.83,0,0,0-.21-1.35,5.72,5.72,0,0,0-.66-1.16,13.08,13.08,0,0,1-1.44-2.07,2.71,2.71,0,0,1-.29-1.14,3.15,3.15,0,0,1,.2-1.14c.26-.74.66-1.41.95-2.12a3,3,0,0,0,.16-2.2c-.26-.68-.74-1.2-1-1.79a2,2,0,0,1,.13-1.75c.28-.52.63-1,.92-1.44a2.94,2.94,0,0,0,.5-1.46,4.72,4.72,0,0,0-.23-1.32,3.83,3.83,0,0,1-.2-1.09,1.58,1.58,0,0,1,.66-1.3A1,1,0,0,1,467.69,162.44Z" style="fill:#455a64"></path><path d="M545.78,178.26a2.64,2.64,0,0,0,.59-.07,4.12,4.12,0,0,0,3.1-2.92,4.24,4.24,0,0,0-.66-3.52,10.85,10.85,0,0,0-1.52-1.51,5,5,0,0,1-1.43-1.76,3.3,3.3,0,0,1,.08-2.37c.28-.81.7-1.59,1-2.49a7.33,7.33,0,0,0-5.66-9.24l.07.17a3.57,3.57,0,0,0,.62-1.64,4.81,4.81,0,0,0-.13-1.77,5.22,5.22,0,0,0-.78-1.63,6.12,6.12,0,0,0-1.29-1.3,11.53,11.53,0,0,0-4.94-1.91,17.42,17.42,0,0,0-5-.14l.12.1a5.29,5.29,0,0,0-3.07-4.55,5.38,5.38,0,0,0-2.63-.46,8.71,8.71,0,0,0-2.44.68,4.85,4.85,0,0,1-1.15.29,3.09,3.09,0,0,1-1.13-.11,9.28,9.28,0,0,1-2-.93,8.13,8.13,0,0,0-1.9-.83,6.38,6.38,0,0,0-5,.67,6.36,6.36,0,0,0-1.79,1.6,6.19,6.19,0,0,0-.77,1.3,2.83,2.83,0,0,0-.18.49s.07-.17.21-.48a7.19,7.19,0,0,1,.79-1.26,6.57,6.57,0,0,1,1.79-1.56,6.17,6.17,0,0,1,3-.85,6.65,6.65,0,0,1,1.85.23,7.86,7.86,0,0,1,1.86.84,9.48,9.48,0,0,0,2,.95,3.14,3.14,0,0,0,1.19.12,5.44,5.44,0,0,0,1.19-.29,8.59,8.59,0,0,1,2.39-.67,5.36,5.36,0,0,1,2.54.46,5.09,5.09,0,0,1,2.93,4.37v.12h.12a17.29,17.29,0,0,1,5,.14,11.42,11.42,0,0,1,4.85,1.87,6.38,6.38,0,0,1,1.24,1.25,5,5,0,0,1,.74,1.56,4.56,4.56,0,0,1,.13,1.68,3.56,3.56,0,0,1-.58,1.55l-.1.14.17,0a7.12,7.12,0,0,1,5.51,9c-.24.87-.67,1.66-.94,2.48a3.43,3.43,0,0,0-.07,2.5,5.3,5.3,0,0,0,1.48,1.81,10.11,10.11,0,0,1,1.51,1.48,4.07,4.07,0,0,1,.67,3.4,3.89,3.89,0,0,1-1.48,2.19,4,4,0,0,1-1.52.72C546,178.24,545.77,178.25,545.78,178.26Z" style="fill:#263238"></path><path d="M465,157.35s0,0,0-.15,0-.24,0-.42c0-.38.07-.92.12-1.61s.15-1.56.33-2.54a14.53,14.53,0,0,1,.93-3.24,9.6,9.6,0,0,1,2.33-3.31,7.42,7.42,0,0,1,1.9-1.21,21.54,21.54,0,0,1,2.31-.71,6.55,6.55,0,0,0,2.34-1.08,10.69,10.69,0,0,0,1.88-1.92c.57-.71,1.1-1.46,1.74-2.13a7.52,7.52,0,0,1,2.21-1.69,13.5,13.5,0,0,1,5.38-1.24,35.55,35.55,0,0,1,5.2.13,26.6,26.6,0,0,1,8.49,2.23,18.69,18.69,0,0,1,4.92,3.27c.26.24.49.45.68.64l.46.51.28.31.11.1-.09-.11-.27-.33-.44-.52-.67-.67a18.51,18.51,0,0,0-4.92-3.35,26.41,26.41,0,0,0-8.53-2.28,34.54,34.54,0,0,0-5.23-.15,13.74,13.74,0,0,0-5.47,1.25,8.17,8.17,0,0,0-2.28,1.74c-.64.69-1.18,1.45-1.75,2.15a10.27,10.27,0,0,1-1.83,1.89,6.52,6.52,0,0,1-2.27,1.05,19.73,19.73,0,0,0-2.33.73,7.18,7.18,0,0,0-1.94,1.25,9.63,9.63,0,0,0-2.35,3.39,14.38,14.38,0,0,0-.92,3.28,24.86,24.86,0,0,0-.28,2.55c-.05.7-.07,1.25-.09,1.62v.42C465,157.3,465,157.35,465,157.35Z" style="fill:#263238"></path><path d="M496.25,186.28l-5.46,2.11-.52.2a11.46,11.46,0,0,0,1.09,2.72,2.93,2.93,0,0,0,2,1.4,3.37,3.37,0,0,0,2-.53,3.93,3.93,0,0,0,1.66-2.72A4.16,4.16,0,0,0,496.25,186.28Z" style="fill:#eb996e"></path><path d="M493.09,192.73a4.3,4.3,0,0,0,2.09-.56,3.49,3.49,0,0,0,1.4-1.8,4.42,4.42,0,0,0,0-2.81,6.07,6.07,0,0,0-.29-.7,1,1,0,0,0-.16-.26c-.05,0,0,0-.11,0l-1.33.53-2.29.89a11.13,11.13,0,0,1-2.16.71,10.65,10.65,0,0,1,2-1l2.25-1c.44-.19.85-.37,1.36-.57a.57.57,0,0,1,.59.13,1.66,1.66,0,0,1,.25.39,4.76,4.76,0,0,1,.31.77,4.57,4.57,0,0,1,0,3.1,3.7,3.7,0,0,1-1.64,1.94,3.15,3.15,0,0,1-1.66.41A1.07,1.07,0,0,1,493.09,192.73Z" style="fill:#263238"></path><path d="M522,185.67a4.07,4.07,0,0,1,1.13.63,5,5,0,0,1,1.86,2.95,5.34,5.34,0,0,1,0,2.45,6,6,0,0,1-1.33,2.49,6.16,6.16,0,0,1-2.56,1.75,5.63,5.63,0,0,1-3.33.12,6,6,0,0,1-2.88-1.69,5.41,5.41,0,0,1-1.41-2.77,5.82,5.82,0,0,1,1.39-4.94,5.19,5.19,0,0,1,1.68-1.12,5.32,5.32,0,0,1,1.47-.41,2.89,2.89,0,0,1,1,0,1.13,1.13,0,0,1,.32.09,4.54,4.54,0,0,0-1.26,0,5.66,5.66,0,0,0-1.42.44,5.19,5.19,0,0,0-1.6,1.12,5.63,5.63,0,0,0-1.28,4.75,5.24,5.24,0,0,0,1.35,2.63,5.84,5.84,0,0,0,2.75,1.61,5.38,5.38,0,0,0,3.16-.12,5.88,5.88,0,0,0,2.47-1.66,5.77,5.77,0,0,0,1.29-2.37,5.21,5.21,0,0,0,.05-2.35,5.08,5.08,0,0,0-1.73-2.91C522.46,185.87,522,185.7,522,185.67Z" style="fill:#e0e0e0"></path><path d="M499.26,175.57a1.62,1.62,0,0,0,1.52,1.68,1.55,1.55,0,0,0,1.71-1.42,1.63,1.63,0,0,0-1.52-1.68A1.56,1.56,0,0,0,499.26,175.57Z" style="fill:#263238"></path><path d="M483.09,174.74a1.62,1.62,0,0,0,1.52,1.68,1.55,1.55,0,0,0,1.71-1.42,1.64,1.64,0,0,0-1.52-1.68A1.56,1.56,0,0,0,483.09,174.74Z" style="fill:#263238"></path><path d="M480.94,170.66c.19.29,1.65-.74,3.54-.56s3.17,1.41,3.41,1.16-.06-.61-.61-1.18a4.3,4.3,0,0,0-5.55-.48C481.1,170.07,480.85,170.53,480.94,170.66Z" style="fill:#263238"></path><path d="M497.34,171.53c.24.26,1.66-.88,3.69-.9s3.52,1.06,3.74.79c.11-.12-.13-.59-.78-1.09a4.89,4.89,0,0,0-3-1,4.76,4.76,0,0,0-2.93,1C497.44,170.94,497.23,171.42,497.34,171.53Z" style="fill:#263238"></path><polygon points="440.08 429.27 450.65 454.92 469.75 447.04 459.03 415.39 440.08 429.27" style="fill:#ffbe9d"></polygon><path d="M448.53,453.15l6.24,13.22s-18.11,17.23-16.64,21.31l41.63-17.88-10.13-26.41Z" style="fill:#455a64"></path><path d="M466.87,459a1.86,1.86,0,0,1,2,1.44,1.77,1.77,0,0,1-1.4,2,2,2,0,0,1-2.12-1.53c-.06-.91.79-2,1.69-1.92" style="fill:#e0e0e0"></path><g style="opacity:0.6000000000000001"><path d="M479.76,469.8l-1.56-3.32-39.34,18.39s-1.5,1.6-.73,2.81Z" style="fill:#fff"></path></g><path d="M454,466.44c.09.21,1.15-.14,2.43.09s2.18.84,2.33.68-.65-1.2-2.21-1.45S453.88,466.28,454,466.44Z" style="fill:#263238"></path><path d="M450.42,470.13c0,.21,1.06.18,2.12.74s1.65,1.39,1.85,1.3-.16-1.31-1.49-2S450.34,469.93,450.42,470.13Z" style="fill:#263238"></path><path d="M450.18,476.42c.2,0,.05-1.17-.95-2.06s-2.14-.93-2.15-.72.83.55,1.64,1.29S450,476.48,450.18,476.42Z" style="fill:#263238"></path><path d="M452.27,461.38c.16.15,1-.53,2.16-.95s2.23-.44,2.26-.66-1.14-.57-2.52-.06S452.1,461.26,452.27,461.38Z" style="fill:#263238"></path><path d="M438.59,442.9l-25.65-79.83s1.23-13,3.81-17.07,76.49-25.08,76.49-25.08,18.76-3.7,31,1.29,24.55,11,23,19.66a23.85,23.85,0,0,1-1.12,3.86,31.57,31.57,0,0,1-30,20.19l-9.68.68-49.54,7.34a3.77,3.77,0,0,0-3.1,4.67l13.68,53.56S449.65,439.91,438.59,442.9Z" style="fill:#263238"></path><polygon points="415.31 387.47 413.48 415.15 434.09 416.51 438.44 383.38 415.31 387.47" style="fill:#ffbe9d"></polygon><path d="M413.63,411.46l-1.51,15.78s-23.86,7.47-24.35,11.78L433,441.36l2.56-28.18Z" style="fill:#455a64"></path><path d="M412.28,418.31a1.69,1.69,0,0,1,.06-.81,5,5,0,0,1,1-2,3,3,0,0,1,.56-.57,1.1,1.1,0,0,1,1-.16.71.71,0,0,1,.44.42.78.78,0,0,1-.05.55,5.33,5.33,0,0,1-.51.81c-.37.52-.69,1-1.16,1.62a1.37,1.37,0,0,1-1.23.44,2.85,2.85,0,0,1-1.16-.51,10.46,10.46,0,0,1-1.66-1.5,8.24,8.24,0,0,1-.64-.82,2.47,2.47,0,0,1-.47-.93.84.84,0,0,1,.56-1,1.26,1.26,0,0,1,1.08.27,7,7,0,0,1,1.1,1.21,7.72,7.72,0,0,1,1,2c.16.5.2.79.16.8a14.27,14.27,0,0,0-1.52-2.61,6.44,6.44,0,0,0-1.06-1.1.84.84,0,0,0-.64-.18.42.42,0,0,0-.23.5,2.12,2.12,0,0,0,.41.76,8.85,8.85,0,0,0,.63.77,9.85,9.85,0,0,0,1.58,1.41,2.14,2.14,0,0,0,.9.41.77.77,0,0,0,.74-.27c.4-.47.79-1.06,1.15-1.55a6.62,6.62,0,0,0,.49-.72q.15-.35-.12-.45c-.41-.17-.83.23-1.12.57A7.3,7.3,0,0,0,412.28,418.31Z" style="fill:#263238"></path><path d="M426.21,426a1.85,1.85,0,0,1,1.17,2.18,1.77,1.77,0,0,1-2.14,1.17A2,2,0,0,1,424,427a1.85,1.85,0,0,1,2.37-1" style="fill:#e0e0e0"></path><g style="opacity:0.6000000000000001"><path d="M433,441.36l.06-3.68-43.41-.86s-2.06.77-1.91,2.2Z" style="fill:#fff"></path></g><path d="M411.4,427c0,.22,1.09.38,2.14,1.15s1.59,1.72,1.79,1.64-.05-1.37-1.34-2.27S411.36,426.77,411.4,427Z" style="fill:#263238"></path><path d="M406.55,428.69c-.06.21.88.64,1.58,1.61s.87,2,1.09,2,.42-1.24-.47-2.43S406.57,428.48,406.55,428.69Z" style="fill:#263238"></path><path d="M403.56,434.23c.2.06.56-1,.06-2.27s-1.51-1.77-1.62-1.59.51.85.91,1.88S403.34,434.2,403.56,434.23Z" style="fill:#263238"></path><path d="M412.07,421.66c.09.2,1.11-.05,2.36.1s2.2.6,2.32.41-.77-1-2.24-1.17S412,421.48,412.07,421.66Z" style="fill:#263238"></path><path d="M430.56,311s-12.33-1.5-14.26,11.86-11,75.26-11,75.26l33.88,4.24,7.13-63.78,46.9-17.7S438.88,309.67,430.56,311Z" style="fill:#263238"></path><path d="M482.27,295.06s-8.38,20.72-7,23.13S495.45,331,495.45,331L543,351.58a40.55,40.55,0,0,0,5.79-19.79c.5-12.12-15.39-34.61-15.39-34.61Z" style="fill:#263238"></path><path d="M495.57,320l-.23.11-.7.29-2.73,1.08-10.21,3.95-35.27,13.48.17-.21c-.7,6.3-1.46,13.1-2.24,20.14-1.86,16.46-3.58,31.63-4.93,43.64l0,.22-.21,0-21-2.72-5.78-.79-1.51-.22-.51-.09a3.37,3.37,0,0,1,.52,0l1.52.16,5.79.66,21,2.54-.24.19c1.33-12,3-27.19,4.82-43.65.79-7,1.55-13.84,2.26-20.14l0-.16.15-.06,35.33-13.29,10.27-3.82,2.76-1,.71-.24A.7.7,0,0,1,495.57,320Z" style="fill:#455a64"></path><path d="M533.88,323.64a6.68,6.68,0,0,1-1.34-.42L529,321.89a78.71,78.71,0,0,0-12-3.57,35.59,35.59,0,0,0-12.46-.36,49.31,49.31,0,0,0-5.05,1.24,6.16,6.16,0,0,1,1.28-.59,24.18,24.18,0,0,1,3.71-1,33.58,33.58,0,0,1,12.63.21,67.37,67.37,0,0,1,12.07,3.75c1.5.6,2.7,1.12,3.53,1.48A8.28,8.28,0,0,1,533.88,323.64Z" style="fill:#455a64"></path><path d="M527.51,312.27a37.87,37.87,0,0,0-4.22-.2c-1.3,0-2.86.17-4.59.3s-3.62.29-5.59.58a25.69,25.69,0,0,0-9.61,3.12,30.49,30.49,0,0,0-3.39,2.5,4,4,0,0,1,.74-.88,14.28,14.28,0,0,1,2.45-1.95,24.39,24.39,0,0,1,9.73-3.33c2-.29,3.91-.43,5.64-.53s3.3-.2,4.62-.19a17.81,17.81,0,0,1,3.12.27A3.53,3.53,0,0,1,527.51,312.27Z" style="fill:#455a64"></path><path d="M451.18,458.75a2.1,2.1,0,0,1-.34-.84,5.94,5.94,0,0,1-.1-2.47,3.73,3.73,0,0,1,.23-.83,1,1,0,0,1,.85-.62.72.72,0,0,1,.59.23,1,1,0,0,1,.23.57,6.93,6.93,0,0,1-.06,1c-.09.68-.11,1.35-.26,2.14a1.28,1.28,0,0,1-.88,1,2.68,2.68,0,0,1-1.29,0,9.94,9.94,0,0,1-2.21-.76,10.18,10.18,0,0,1-1-.53,2.79,2.79,0,0,1-.87-.72,1,1,0,0,1,0-1.22,1.16,1.16,0,0,1,1.1-.22,7.26,7.26,0,0,1,1.58.73,8.42,8.42,0,0,1,1.91,1.55,2.56,2.56,0,0,1,.54.72,17.7,17.7,0,0,0-2.64-1.94,7.55,7.55,0,0,0-1.48-.62c-.26-.05-.55,0-.66.11a.47.47,0,0,0,0,.6,2.37,2.37,0,0,0,.74.57c.3.18.61.34.93.5a10.25,10.25,0,0,0,2.11.7,2,2,0,0,0,1,0,.76.76,0,0,0,.53-.61c.13-.65.18-1.41.27-2.07a5.69,5.69,0,0,0,.09-.94c0-.27-.14-.4-.33-.39-.45,0-.63.6-.72,1.07A8.63,8.63,0,0,0,451.18,458.75Z" style="fill:#263238"></path><path d="M535,223.75s.14-7.77-.62-8.68l-15.89-5.54L507.05,213c-2.69,1.18-7.84,8.84-10.74,8.44-3.25-.44-3.86-9-5.2-11.44h0l-5.86,1.51s-10,26.65-10.16,34.2,3.84,17.71,3.18,33.53c-.34,8.27-1.15,15.65,4,15.87l51.09,2.12s11.67-2.71,12.46-9.63S535,223.75,535,223.75Z" style="fill:#455a64"></path><path d="M557.8,276.65l-8-25.33s-4.81-32.14-16-36.6c-4.79-1.91-15.26-1.57-18.43,4.93s.74,11.23,1.51,14.45,11.6,25.73,11.6,25.73a110.29,110.29,0,0,1,5.32,12.68L490.55,295.4,496,309.66,550.06,290a12.16,12.16,0,0,0,7.64-8A10,10,0,0,0,557.8,276.65Z" style="fill:#455a64"></path><path d="M457.13,304.31l11.12-4.76,21.35-.81,1.79-1.13L496,309.66s-5.69,2.44-8.63,2.55l-17.87-1.28-9.4.59Z" style="fill:#ffbe9d"></path><path d="M397.51,259.76l61.34,3c2,.08,3.85,1.12,4.07,3.1l4.85,45,31.61,1.31a1.85,1.85,0,0,1-.16,3.69l-31.05-1.29-5.89-.25-64-2.65-4.94-47.49A4,4,0,0,1,397.51,259.76Z" style="fill:#e0e0e0"></path><path d="M397.51,259.76a3.1,3.1,0,0,0-1,.05,4,4,0,0,0-2.41,1.45,4.17,4.17,0,0,0-.84,1.93,11,11,0,0,0,.13,2.53c.18,1.82.39,3.92.62,6.27,1,9.43,2.35,23,4,39.74l0,.16h.16L496.2,316l2.64.11a2.59,2.59,0,0,0,1.4-.21,2.07,2.07,0,0,0,1-1.07,2.09,2.09,0,0,0-.85-2.59A2.56,2.56,0,0,0,499,312l-1.3-.06-10.25-.42-19.68-.81.23.21c-1.75-16.11-3.38-31.15-4.85-44.63a3.48,3.48,0,0,0-1-2.39,4.57,4.57,0,0,0-2.31-1.13,19.2,19.2,0,0,0-2.47-.19l-2.41-.12-9.23-.44-16.41-.79-23.37-1.09-6.25-.27-1.62-.06h-.55l.55,0,1.61.11,6.25.34,23.36,1.23,16.41.85,9.24.47,2.4.12a21,21,0,0,1,2.41.19,4.16,4.16,0,0,1,2.1,1,3.08,3.08,0,0,1,.92,2.14c1.44,13.49,3.05,28.53,4.77,44.64l0,.21h.2l19.68.82,10.25.43,1.3.05a2.09,2.09,0,0,1,1.14.25,1.6,1.6,0,0,1,.64,2,1.58,1.58,0,0,1-.75.82,2.1,2.1,0,0,1-1.16.15l-2.64-.11-97.93-4,.18.17c-1.77-16.71-3.22-30.3-4.22-39.72-.25-2.35-.48-4.45-.67-6.26a11.61,11.61,0,0,1-.15-2.5,4,4,0,0,1,.79-1.88,4.1,4.1,0,0,1,2.33-1.47A6.87,6.87,0,0,1,397.51,259.76Z" style="fill:#263238"></path><path d="M430.87,286.53a3.84,3.84,0,1,1-3.68-4A3.84,3.84,0,0,1,430.87,286.53Z" style="fill:#fff"></path><path d="M465.15,314.07c-.09,0-1.57-11.46-3.31-25.62s-3.08-25.64-3-25.65,1.57,11.46,3.31,25.62S465.24,314.06,465.15,314.07Z" style="fill:#263238"></path><path d="M545.67,291.59l-.24.1-.7.28L542,293l-10.27,3.81-35.65,13.07-.23.09-.08-.23c-1.74-4.53-3.57-9.32-5.47-14.26l-.08-.21.2-.11c2.74-1.45,5.63-3,8.55-4.53l34.71-18.33-.1.28L523.05,246.7c-1.25-3.11-2.24-5.56-2.92-7.27l-.75-1.92-.19-.49a1.08,1.08,0,0,1-.05-.17s0,.05.09.15.12.29.21.49c.2.45.47,1.08.82,1.89l3,7.22c2.59,6.26,6.28,15.15,10.7,25.82l.08.19-.18.1L499.22,291.1l-8.55,4.53.12-.32c1.88,4.94,3.71,9.73,5.44,14.26l-.32-.14,35.72-12.9L542,292.85l2.76-1,.71-.24A.75.75,0,0,1,545.67,291.59Z" style="fill:#263238"></path><polygon points="516.88 203.46 500.56 210.98 496.35 220.41 495.71 210.78 490.78 206.87 488.16 210.62 492.91 224.23 500.41 224.54 518.48 210.02 519.08 209.7 516.88 203.46" style="fill:#455a64"></polygon><path d="M488.16,210.62a22.15,22.15,0,0,1,1.31,2.86c.77,1.77,1.74,4.29,3,6.93l.09.17-.46,0c1.15-2.64,1.93-5.16,2.56-7a19.42,19.42,0,0,1,1.07-2.88,16.58,16.58,0,0,1-.72,3,59.42,59.42,0,0,1-2.43,7l-.22.49-.24-.46-.11-.2c-1.28-2.71-2.17-5.22-2.86-7A17.17,17.17,0,0,1,488.16,210.62Z" style="fill:#263238"></path><path d="M519.08,209.7a6,6,0,0,1-1,.8l-2.82,2c-2.39,1.69-5.72,4-9.41,6.54l-4.38,3-.35.24,0-.42c-.21-3.18-.38-5.9-.47-7.83q-.06-1.34-.09-2.25a2.75,2.75,0,0,1,0-.82,3.39,3.39,0,0,1,.14.8c.06.62.14,1.36.23,2.25.18,1.92.41,4.64.66,7.81l-.38-.18,4.36-3c3.69-2.53,7.05-4.8,9.49-6.42l2.91-1.89A6.24,6.24,0,0,1,519.08,209.7Z" style="fill:#263238"></path><path d="M479,293s-.09-.14-.23-.43a6.62,6.62,0,0,1-.37-1.36A32.1,32.1,0,0,1,478,286c-.06-2.23,0-4.92.13-7.95s.24-6.4.38-10l.07.18a23.05,23.05,0,0,1-6.08-14.12,28.23,28.23,0,0,1,.41-6.37,91.88,91.88,0,0,1,2.73-10.39,68,68,0,0,0,1.76-7c.32-1.67.39-2.62.44-2.61a3.28,3.28,0,0,1,0,.69c0,.45-.09,1.11-.22,2a57.7,57.7,0,0,1-1.61,7.06,101.92,101.92,0,0,0-2.61,10.37,27.94,27.94,0,0,0-.37,6.26,22.25,22.25,0,0,0,1.45,6.54,22.82,22.82,0,0,0,4.49,7.27l.07.07v.11c-.16,3.6-.31,7-.45,10s-.26,5.7-.24,7.92a36.78,36.78,0,0,0,.31,5.2A10.12,10.12,0,0,0,479,293Z" style="fill:#263238"></path><path d="M493.81,292.8a6.12,6.12,0,0,1-.08-.74c0-.53-.08-1.23-.13-2.11-.12-1.83-.23-4.49-.32-7.77-.19-6.57-.23-15.65.19-25.67s1.23-19.07,2-25.6c.37-3.26.7-5.9,1-7.72l.31-2.09a3.75,3.75,0,0,1,.15-.73,5.76,5.76,0,0,1,0,.74c-.06.53-.13,1.23-.22,2.11-.2,1.88-.47,4.51-.81,7.73-.65,6.53-1.39,15.57-1.82,25.58s-.44,19.08-.34,25.64c.06,3.24.11,5.88.15,7.77,0,.88,0,1.58,0,2.12A3.56,3.56,0,0,1,493.81,292.8Z" style="fill:#263238"></path><path d="M533,215.22c0,.1-1.34-.08-3.43.25a14.71,14.71,0,0,0-11.89,10.15c-.65,2-.68,3.36-.78,3.35a3.15,3.15,0,0,1,0-.94,12.85,12.85,0,0,1,.45-2.52,14.32,14.32,0,0,1,12.19-10.41,12.45,12.45,0,0,1,2.56,0A3.08,3.08,0,0,1,533,215.22Z" style="fill:#263238"></path><path d="M542.41,276.27a18.71,18.71,0,0,0-4.09-2.67,17.85,17.85,0,0,0-4.78-1,3.09,3.09,0,0,1,1.47-.21,9.48,9.48,0,0,1,3.51.72,9.38,9.38,0,0,1,3,2C542.17,275.74,542.46,276.23,542.41,276.27Z" style="fill:#263238"></path><path d="M522.83,265.57s-.24.17-.7.38a15.07,15.07,0,0,1-2,.73,22.08,22.08,0,0,1-14-.57,15.68,15.68,0,0,1-2-.89c-.45-.25-.69-.4-.67-.43s1.05.41,2.75,1a25.09,25.09,0,0,0,13.81.56C521.75,265.9,522.79,265.49,522.83,265.57Z" style="fill:#263238"></path></g></svg>