<svg xmlns="http://www.w3.org/2000/svg" xmlns:xlink="http://www.w3.org/1999/xlink" width="500" zoomAndPan="magnify" viewBox="0 0 375 374.999991" height="500" preserveAspectRatio="xMidYMid meet" version="1.0"><defs><g/><clipPath id="8f8ac162e9"><path d="M 153 159 L 201 159 L 201 208 L 153 208 Z M 153 159 " clip-rule="nonzero"/></clipPath><clipPath id="b874742782"><path d="M 200.972656 183.644531 C 200.972656 196.847656 190.269531 207.550781 177.066406 207.550781 C 163.863281 207.550781 153.160156 196.847656 153.160156 183.644531 C 153.160156 170.441406 163.863281 159.738281 177.066406 159.738281 C 190.269531 159.738281 200.972656 170.441406 200.972656 183.644531 Z M 200.972656 183.644531 " clip-rule="nonzero"/></clipPath><linearGradient x1="16" gradientTransform="matrix(1.59375, 0, 0, 1.59375, 151.565537, 158.146256)" y1="0.999996" x2="16" gradientUnits="userSpaceOnUse" y2="30.999995" id="62202fae20"><stop stop-opacity="1" stop-color="rgb(67.098999%, 34.498596%, 100%)" offset="0"/><stop stop-opacity="1" stop-color="rgb(66.999817%, 34.437561%, 99.833679%)" offset="0.0078125"/><stop stop-opacity="1" stop-color="rgb(66.799927%, 34.315491%, 99.501038%)" offset="0.015625"/><stop stop-opacity="1" stop-color="rgb(66.600037%, 34.191895%, 99.169922%)" offset="0.0234375"/><stop stop-opacity="1" stop-color="rgb(66.401672%, 34.069824%, 98.838806%)" offset="0.03125"/><stop stop-opacity="1" stop-color="rgb(66.201782%, 33.947754%, 98.50769%)" offset="0.0390625"/><stop stop-opacity="1" stop-color="rgb(66.003418%, 33.824158%, 98.176575%)" offset="0.046875"/><stop stop-opacity="1" stop-color="rgb(65.803528%, 33.702087%, 97.845459%)" offset="0.0546875"/><stop stop-opacity="1" stop-color="rgb(65.605164%, 33.578491%, 97.514343%)" offset="0.0625"/><stop stop-opacity="1" stop-color="rgb(65.405273%, 33.456421%, 97.183228%)" offset="0.0703125"/><stop stop-opacity="1" stop-color="rgb(65.206909%, 33.334351%, 96.852112%)" offset="0.078125"/><stop stop-opacity="1" stop-color="rgb(65.007019%, 33.210754%, 96.520996%)" offset="0.0859375"/><stop stop-opacity="1" stop-color="rgb(64.807129%, 33.088684%, 96.18988%)" offset="0.09375"/><stop stop-opacity="1" stop-color="rgb(64.608765%, 32.965088%, 95.857239%)" offset="0.101563"/><stop stop-opacity="1" stop-color="rgb(64.408875%, 32.843018%, 95.526123%)" offset="0.109375"/><stop stop-opacity="1" stop-color="rgb(64.21051%, 32.720947%, 95.195007%)" offset="0.117188"/><stop stop-opacity="1" stop-color="rgb(64.01062%, 32.597351%, 94.863892%)" offset="0.125"/><stop stop-opacity="1" stop-color="rgb(63.812256%, 32.475281%, 94.532776%)" offset="0.132812"/><stop stop-opacity="1" stop-color="rgb(63.612366%, 32.35321%, 94.20166%)" offset="0.140625"/><stop stop-opacity="1" stop-color="rgb(63.414001%, 32.229614%, 93.870544%)" offset="0.148438"/><stop stop-opacity="1" stop-color="rgb(63.214111%, 32.107544%, 93.539429%)" offset="0.15625"/><stop stop-opacity="1" stop-color="rgb(63.014221%, 31.983948%, 93.208313%)" offset="0.164063"/><stop stop-opacity="1" stop-color="rgb(62.815857%, 31.861877%, 92.877197%)" offset="0.171875"/><stop stop-opacity="1" stop-color="rgb(62.615967%, 31.739807%, 92.546082%)" offset="0.179688"/><stop stop-opacity="1" stop-color="rgb(62.417603%, 31.616211%, 92.21344%)" offset="0.1875"/><stop stop-opacity="1" stop-color="rgb(62.217712%, 31.494141%, 91.882324%)" offset="0.195312"/><stop stop-opacity="1" stop-color="rgb(62.019348%, 31.370544%, 91.551208%)" offset="0.203125"/><stop stop-opacity="1" stop-color="rgb(61.819458%, 31.248474%, 91.220093%)" offset="0.210938"/><stop stop-opacity="1" stop-color="rgb(61.619568%, 31.126404%, 90.888977%)" offset="0.21875"/><stop stop-opacity="1" stop-color="rgb(61.421204%, 31.002808%, 90.557861%)" offset="0.226563"/><stop stop-opacity="1" stop-color="rgb(61.221313%, 30.880737%, 90.226746%)" offset="0.234375"/><stop stop-opacity="1" stop-color="rgb(61.022949%, 30.758667%, 89.89563%)" offset="0.242188"/><stop stop-opacity="1" stop-color="rgb(60.823059%, 30.635071%, 89.564514%)" offset="0.25"/><stop stop-opacity="1" stop-color="rgb(60.624695%, 30.513%, 89.233398%)" offset="0.257812"/><stop stop-opacity="1" stop-color="rgb(60.424805%, 30.389404%, 88.902283%)" offset="0.265625"/><stop stop-opacity="1" stop-color="rgb(60.22644%, 30.267334%, 88.571167%)" offset="0.273438"/><stop stop-opacity="1" stop-color="rgb(60.02655%, 30.145264%, 88.238525%)" offset="0.28125"/><stop stop-opacity="1" stop-color="rgb(59.82666%, 30.021667%, 87.90741%)" offset="0.289062"/><stop stop-opacity="1" stop-color="rgb(59.628296%, 29.899597%, 87.576294%)" offset="0.296875"/><stop stop-opacity="1" stop-color="rgb(59.428406%, 29.776001%, 87.245178%)" offset="0.304688"/><stop stop-opacity="1" stop-color="rgb(59.230042%, 29.653931%, 86.914062%)" offset="0.3125"/><stop stop-opacity="1" stop-color="rgb(59.030151%, 29.53186%, 86.582947%)" offset="0.320313"/><stop stop-opacity="1" stop-color="rgb(58.831787%, 29.408264%, 86.251831%)" offset="0.328125"/><stop stop-opacity="1" stop-color="rgb(58.631897%, 29.286194%, 85.920715%)" offset="0.335938"/><stop stop-opacity="1" stop-color="rgb(58.433533%, 29.164124%, 85.5896%)" offset="0.34375"/><stop stop-opacity="1" stop-color="rgb(58.233643%, 29.040527%, 85.258484%)" offset="0.351563"/><stop stop-opacity="1" stop-color="rgb(58.033752%, 28.918457%, 84.927368%)" offset="0.359375"/><stop stop-opacity="1" stop-color="rgb(57.835388%, 28.794861%, 84.594727%)" offset="0.367188"/><stop stop-opacity="1" stop-color="rgb(57.635498%, 28.672791%, 84.263611%)" offset="0.375"/><stop stop-opacity="1" stop-color="rgb(57.437134%, 28.55072%, 83.932495%)" offset="0.382812"/><stop stop-opacity="1" stop-color="rgb(57.237244%, 28.427124%, 83.601379%)" offset="0.390625"/><stop stop-opacity="1" stop-color="rgb(57.038879%, 28.305054%, 83.270264%)" offset="0.398437"/><stop stop-opacity="1" stop-color="rgb(56.838989%, 28.181458%, 82.939148%)" offset="0.40625"/><stop stop-opacity="1" stop-color="rgb(56.639099%, 28.059387%, 82.608032%)" offset="0.414062"/><stop stop-opacity="1" stop-color="rgb(56.440735%, 27.937317%, 82.276917%)" offset="0.421875"/><stop stop-opacity="1" stop-color="rgb(56.240845%, 27.813721%, 81.945801%)" offset="0.429687"/><stop stop-opacity="1" stop-color="rgb(56.04248%, 27.69165%, 81.614685%)" offset="0.4375"/><stop stop-opacity="1" stop-color="rgb(55.84259%, 27.56958%, 81.283569%)" offset="0.445312"/><stop stop-opacity="1" stop-color="rgb(55.644226%, 27.445984%, 80.950928%)" offset="0.453125"/><stop stop-opacity="1" stop-color="rgb(55.444336%, 27.323914%, 80.619812%)" offset="0.460938"/><stop stop-opacity="1" stop-color="rgb(55.245972%, 27.200317%, 80.288696%)" offset="0.46875"/><stop stop-opacity="1" stop-color="rgb(55.046082%, 27.078247%, 79.957581%)" offset="0.476562"/><stop stop-opacity="1" stop-color="rgb(54.846191%, 26.956177%, 79.626465%)" offset="0.484375"/><stop stop-opacity="1" stop-color="rgb(54.647827%, 26.832581%, 79.295349%)" offset="0.492188"/><stop stop-opacity="1" stop-color="rgb(54.447937%, 26.71051%, 78.964233%)" offset="0.5"/><stop stop-opacity="1" stop-color="rgb(54.249573%, 26.586914%, 78.633118%)" offset="0.507812"/><stop stop-opacity="1" stop-color="rgb(54.049683%, 26.464844%, 78.302002%)" offset="0.515625"/><stop stop-opacity="1" stop-color="rgb(53.851318%, 26.342773%, 77.970886%)" offset="0.523437"/><stop stop-opacity="1" stop-color="rgb(53.651428%, 26.219177%, 77.639771%)" offset="0.53125"/><stop stop-opacity="1" stop-color="rgb(53.453064%, 26.097107%, 77.308655%)" offset="0.539062"/><stop stop-opacity="1" stop-color="rgb(53.253174%, 25.975037%, 76.976013%)" offset="0.546875"/><stop stop-opacity="1" stop-color="rgb(53.053284%, 25.85144%, 76.644897%)" offset="0.554687"/><stop stop-opacity="1" stop-color="rgb(52.854919%, 25.72937%, 76.313782%)" offset="0.5625"/><stop stop-opacity="1" stop-color="rgb(52.655029%, 25.605774%, 75.982666%)" offset="0.570312"/><stop stop-opacity="1" stop-color="rgb(52.456665%, 25.483704%, 75.65155%)" offset="0.578125"/><stop stop-opacity="1" stop-color="rgb(52.256775%, 25.361633%, 75.320435%)" offset="0.585937"/><stop stop-opacity="1" stop-color="rgb(52.058411%, 25.238037%, 74.989319%)" offset="0.59375"/><stop stop-opacity="1" stop-color="rgb(51.858521%, 25.115967%, 74.658203%)" offset="0.601562"/><stop stop-opacity="1" stop-color="rgb(51.65863%, 24.992371%, 74.327087%)" offset="0.609375"/><stop stop-opacity="1" stop-color="rgb(51.460266%, 24.8703%, 73.995972%)" offset="0.617187"/><stop stop-opacity="1" stop-color="rgb(51.260376%, 24.74823%, 73.664856%)" offset="0.625"/><stop stop-opacity="1" stop-color="rgb(51.062012%, 24.624634%, 73.332214%)" offset="0.632812"/><stop stop-opacity="1" stop-color="rgb(50.862122%, 24.502563%, 73.001099%)" offset="0.640625"/><stop stop-opacity="1" stop-color="rgb(50.663757%, 24.380493%, 72.669983%)" offset="0.648438"/><stop stop-opacity="1" stop-color="rgb(50.463867%, 24.256897%, 72.338867%)" offset="0.65625"/><stop stop-opacity="1" stop-color="rgb(50.265503%, 24.134827%, 72.007751%)" offset="0.664062"/><stop stop-opacity="1" stop-color="rgb(50.065613%, 24.01123%, 71.676636%)" offset="0.671875"/><stop stop-opacity="1" stop-color="rgb(49.865723%, 23.88916%, 71.34552%)" offset="0.679688"/><stop stop-opacity="1" stop-color="rgb(49.667358%, 23.76709%, 71.014404%)" offset="0.6875"/><stop stop-opacity="1" stop-color="rgb(49.467468%, 23.643494%, 70.683289%)" offset="0.695312"/><stop stop-opacity="1" stop-color="rgb(49.269104%, 23.521423%, 70.352173%)" offset="0.703125"/><stop stop-opacity="1" stop-color="rgb(49.069214%, 23.397827%, 70.021057%)" offset="0.710938"/><stop stop-opacity="1" stop-color="rgb(48.87085%, 23.275757%, 69.688416%)" offset="0.71875"/><stop stop-opacity="1" stop-color="rgb(48.670959%, 23.153687%, 69.3573%)" offset="0.726562"/><stop stop-opacity="1" stop-color="rgb(48.472595%, 23.03009%, 69.026184%)" offset="0.734375"/><stop stop-opacity="1" stop-color="rgb(48.272705%, 22.90802%, 68.695068%)" offset="0.742188"/><stop stop-opacity="1" stop-color="rgb(48.072815%, 22.78595%, 68.363953%)" offset="0.75"/><stop stop-opacity="1" stop-color="rgb(47.874451%, 22.662354%, 68.032837%)" offset="0.757812"/><stop stop-opacity="1" stop-color="rgb(47.674561%, 22.540283%, 67.701721%)" offset="0.765625"/><stop stop-opacity="1" stop-color="rgb(47.476196%, 22.416687%, 67.370605%)" offset="0.773438"/><stop stop-opacity="1" stop-color="rgb(47.276306%, 22.294617%, 67.03949%)" offset="0.78125"/><stop stop-opacity="1" stop-color="rgb(47.077942%, 22.172546%, 66.708374%)" offset="0.789062"/><stop stop-opacity="1" stop-color="rgb(46.878052%, 22.04895%, 66.377258%)" offset="0.796875"/><stop stop-opacity="1" stop-color="rgb(46.678162%, 21.92688%, 66.046143%)" offset="0.804688"/><stop stop-opacity="1" stop-color="rgb(46.479797%, 21.803284%, 65.713501%)" offset="0.8125"/><stop stop-opacity="1" stop-color="rgb(46.279907%, 21.681213%, 65.382385%)" offset="0.820312"/><stop stop-opacity="1" stop-color="rgb(46.081543%, 21.559143%, 65.05127%)" offset="0.828125"/><stop stop-opacity="1" stop-color="rgb(45.881653%, 21.435547%, 64.720154%)" offset="0.835938"/><stop stop-opacity="1" stop-color="rgb(45.683289%, 21.313477%, 64.389038%)" offset="0.84375"/><stop stop-opacity="1" stop-color="rgb(45.483398%, 21.191406%, 64.057922%)" offset="0.851562"/><stop stop-opacity="1" stop-color="rgb(45.285034%, 21.06781%, 63.726807%)" offset="0.859375"/><stop stop-opacity="1" stop-color="rgb(45.085144%, 20.94574%, 63.395691%)" offset="0.867188"/><stop stop-opacity="1" stop-color="rgb(44.885254%, 20.822144%, 63.064575%)" offset="0.875"/><stop stop-opacity="1" stop-color="rgb(44.68689%, 20.700073%, 62.733459%)" offset="0.882813"/><stop stop-opacity="1" stop-color="rgb(44.487%, 20.578003%, 62.402344%)" offset="0.890625"/><stop stop-opacity="1" stop-color="rgb(44.288635%, 20.454407%, 62.069702%)" offset="0.898438"/><stop stop-opacity="1" stop-color="rgb(44.088745%, 20.332336%, 61.738586%)" offset="0.90625"/><stop stop-opacity="1" stop-color="rgb(43.890381%, 20.20874%, 61.407471%)" offset="0.914063"/><stop stop-opacity="1" stop-color="rgb(43.690491%, 20.08667%, 61.076355%)" offset="0.921875"/><stop stop-opacity="1" stop-color="rgb(43.492126%, 19.9646%, 60.745239%)" offset="0.929688"/><stop stop-opacity="1" stop-color="rgb(43.292236%, 19.841003%, 60.414124%)" offset="0.9375"/><stop stop-opacity="1" stop-color="rgb(43.092346%, 19.718933%, 60.083008%)" offset="0.945313"/><stop stop-opacity="1" stop-color="rgb(42.893982%, 19.596863%, 59.751892%)" offset="0.953125"/><stop stop-opacity="1" stop-color="rgb(42.694092%, 19.473267%, 59.420776%)" offset="0.960938"/><stop stop-opacity="1" stop-color="rgb(42.495728%, 19.351196%, 59.089661%)" offset="0.96875"/><stop stop-opacity="1" stop-color="rgb(42.295837%, 19.2276%, 58.758545%)" offset="0.976563"/><stop stop-opacity="1" stop-color="rgb(42.097473%, 19.10553%, 58.427429%)" offset="0.984375"/><stop stop-opacity="1" stop-color="rgb(41.897583%, 18.983459%, 58.094788%)" offset="0.992188"/><stop stop-opacity="1" stop-color="rgb(41.697693%, 18.859863%, 57.763672%)" offset="1"/></linearGradient></defs><g clip-path="url(#8f8ac162e9)"><g clip-path="url(#b874742782)"><path fill="url(#62202fae20)" d="M 153.160156 159.738281 L 153.160156 207.550781 L 200.972656 207.550781 L 200.972656 159.738281 Z M 153.160156 159.738281 " fill-rule="nonzero"/></g></g><path fill="#ffffff" d="M 175.648438 170.894531 C 176.429688 170.894531 177.066406 171.53125 177.066406 172.3125 C 177.066406 173.09375 176.429688 173.730469 175.648438 173.730469 L 173.523438 173.730469 L 173.523438 193.5625 L 175.648438 193.5625 C 176.429688 193.5625 177.066406 194.195312 177.066406 194.980469 C 177.066406 195.761719 176.429688 196.394531 175.648438 196.394531 L 172.105469 196.394531 C 171.324219 196.394531 170.691406 195.761719 170.691406 194.980469 L 170.691406 172.3125 C 170.691406 171.53125 171.324219 170.894531 172.105469 170.894531 Z M 179.898438 170.894531 C 179.117188 170.894531 178.480469 171.53125 178.480469 172.3125 C 178.480469 173.09375 179.117188 173.730469 179.898438 173.730469 L 182.023438 173.730469 L 182.023438 193.5625 L 179.898438 193.5625 C 179.117188 193.5625 178.480469 194.195312 178.480469 194.980469 C 178.480469 195.761719 179.117188 196.394531 179.898438 196.394531 L 183.441406 196.394531 C 184.222656 196.394531 184.855469 195.761719 184.855469 194.980469 L 184.855469 172.3125 C 184.855469 171.53125 184.222656 170.894531 183.441406 170.894531 Z M 179.898438 170.894531 " fill-opacity="1" fill-rule="evenodd"/><g fill="#ffffff" fill-opacity="1"><g transform="translate(61.761705, 235.285028)"><g><path d="M 4.234375 0.109375 C 3.515625 0.109375 2.816406 0 2.140625 -0.21875 C 1.472656 -0.445312 0.945312 -0.738281 0.5625 -1.09375 L 1.0625 -2.171875 C 1.425781 -1.835938 1.894531 -1.566406 2.46875 -1.359375 C 3.039062 -1.160156 3.628906 -1.0625 4.234375 -1.0625 C 5.023438 -1.0625 5.617188 -1.191406 6.015625 -1.453125 C 6.410156 -1.722656 6.609375 -2.082031 6.609375 -2.53125 C 6.609375 -2.863281 6.5 -3.128906 6.28125 -3.328125 C 6.0625 -3.535156 5.796875 -3.691406 5.484375 -3.796875 C 5.171875 -3.910156 4.726562 -4.035156 4.15625 -4.171875 C 3.425781 -4.347656 2.835938 -4.519531 2.390625 -4.6875 C 1.953125 -4.863281 1.578125 -5.132812 1.265625 -5.5 C 0.953125 -5.863281 0.796875 -6.351562 0.796875 -6.96875 C 0.796875 -7.476562 0.929688 -7.9375 1.203125 -8.34375 C 1.472656 -8.757812 1.878906 -9.085938 2.421875 -9.328125 C 2.972656 -9.578125 3.65625 -9.703125 4.46875 -9.703125 C 5.03125 -9.703125 5.585938 -9.628906 6.140625 -9.484375 C 6.691406 -9.335938 7.160156 -9.128906 7.546875 -8.859375 L 7.09375 -7.75 C 6.695312 -8.007812 6.269531 -8.203125 5.8125 -8.328125 C 5.351562 -8.460938 4.90625 -8.53125 4.46875 -8.53125 C 3.6875 -8.53125 3.101562 -8.390625 2.71875 -8.109375 C 2.332031 -7.828125 2.140625 -7.460938 2.140625 -7.015625 C 2.140625 -6.679688 2.25 -6.410156 2.46875 -6.203125 C 2.6875 -6.003906 2.957031 -5.847656 3.28125 -5.734375 C 3.601562 -5.617188 4.046875 -5.5 4.609375 -5.375 C 5.328125 -5.195312 5.90625 -5.019531 6.34375 -4.84375 C 6.78125 -4.675781 7.15625 -4.410156 7.46875 -4.046875 C 7.789062 -3.691406 7.953125 -3.21875 7.953125 -2.625 C 7.953125 -2.113281 7.8125 -1.648438 7.53125 -1.234375 C 7.257812 -0.816406 6.84375 -0.488281 6.28125 -0.25 C 5.726562 -0.0078125 5.046875 0.109375 4.234375 0.109375 Z M 4.234375 0.109375 "/></g></g></g><g fill="#ffffff" fill-opacity="1"><g transform="translate(71.937654, 235.285028)"><g><path d="M 5.765625 0.109375 C 4.796875 0.109375 3.921875 -0.101562 3.140625 -0.53125 C 2.367188 -0.957031 1.757812 -1.539062 1.3125 -2.28125 C 0.875 -3.03125 0.65625 -3.867188 0.65625 -4.796875 C 0.65625 -5.722656 0.875 -6.554688 1.3125 -7.296875 C 1.757812 -8.046875 2.367188 -8.632812 3.140625 -9.0625 C 3.921875 -9.488281 4.796875 -9.703125 5.765625 -9.703125 C 6.722656 -9.703125 7.585938 -9.488281 8.359375 -9.0625 C 9.140625 -8.632812 9.75 -8.046875 10.1875 -7.296875 C 10.632812 -6.554688 10.859375 -5.722656 10.859375 -4.796875 C 10.859375 -3.859375 10.632812 -3.019531 10.1875 -2.28125 C 9.75 -1.539062 9.140625 -0.957031 8.359375 -0.53125 C 7.585938 -0.101562 6.722656 0.109375 5.765625 0.109375 Z M 5.765625 -1.109375 C 6.472656 -1.109375 7.109375 -1.265625 7.671875 -1.578125 C 8.234375 -1.898438 8.675781 -2.34375 9 -2.90625 C 9.320312 -3.46875 9.484375 -4.097656 9.484375 -4.796875 C 9.484375 -5.492188 9.320312 -6.117188 9 -6.671875 C 8.675781 -7.234375 8.234375 -7.675781 7.671875 -8 C 7.109375 -8.320312 6.472656 -8.484375 5.765625 -8.484375 C 5.066406 -8.484375 4.429688 -8.320312 3.859375 -8 C 3.285156 -7.675781 2.835938 -7.234375 2.515625 -6.671875 C 2.191406 -6.117188 2.03125 -5.492188 2.03125 -4.796875 C 2.03125 -4.097656 2.191406 -3.46875 2.515625 -2.90625 C 2.835938 -2.34375 3.285156 -1.898438 3.859375 -1.578125 C 4.429688 -1.265625 5.066406 -1.109375 5.765625 -1.109375 Z M 5.765625 -1.109375 "/></g></g></g><g fill="#ffffff" fill-opacity="1"><g transform="translate(85.112978, 235.285028)"><g><path d="M 1.4375 -9.59375 L 2.8125 -9.59375 L 2.8125 -1.1875 L 8 -1.1875 L 8 0 L 1.4375 0 Z M 1.4375 -9.59375 "/></g></g></g><g fill="#ffffff" fill-opacity="1"><g transform="translate(94.919136, 235.285028)"><g><path d="M 5.40625 0.109375 C 4.132812 0.109375 3.140625 -0.253906 2.421875 -0.984375 C 1.710938 -1.710938 1.359375 -2.765625 1.359375 -4.140625 L 1.359375 -9.59375 L 2.734375 -9.59375 L 2.734375 -4.1875 C 2.734375 -2.132812 3.628906 -1.109375 5.421875 -1.109375 C 6.296875 -1.109375 6.96875 -1.359375 7.4375 -1.859375 C 7.90625 -2.367188 8.140625 -3.144531 8.140625 -4.1875 L 8.140625 -9.59375 L 9.46875 -9.59375 L 9.46875 -4.140625 C 9.46875 -2.753906 9.109375 -1.695312 8.390625 -0.96875 C 7.679688 -0.25 6.6875 0.109375 5.40625 0.109375 Z M 5.40625 0.109375 "/></g></g></g><g fill="#ffffff" fill-opacity="1"><g transform="translate(107.42336, 235.285028)"><g><path d="M 5.734375 0.109375 C 4.773438 0.109375 3.90625 -0.101562 3.125 -0.53125 C 2.351562 -0.957031 1.75 -1.539062 1.3125 -2.28125 C 0.875 -3.019531 0.65625 -3.859375 0.65625 -4.796875 C 0.65625 -5.722656 0.875 -6.554688 1.3125 -7.296875 C 1.75 -8.046875 2.351562 -8.632812 3.125 -9.0625 C 3.90625 -9.488281 4.773438 -9.703125 5.734375 -9.703125 C 6.484375 -9.703125 7.171875 -9.578125 7.796875 -9.328125 C 8.421875 -9.078125 8.953125 -8.703125 9.390625 -8.203125 L 8.5 -7.34375 C 7.769531 -8.101562 6.867188 -8.484375 5.796875 -8.484375 C 5.085938 -8.484375 4.441406 -8.320312 3.859375 -8 C 3.285156 -7.675781 2.835938 -7.234375 2.515625 -6.671875 C 2.191406 -6.117188 2.03125 -5.492188 2.03125 -4.796875 C 2.03125 -4.097656 2.191406 -3.46875 2.515625 -2.90625 C 2.835938 -2.34375 3.285156 -1.898438 3.859375 -1.578125 C 4.441406 -1.265625 5.085938 -1.109375 5.796875 -1.109375 C 6.867188 -1.109375 7.769531 -1.492188 8.5 -2.265625 L 9.390625 -1.390625 C 8.953125 -0.898438 8.414062 -0.523438 7.78125 -0.265625 C 7.15625 -0.015625 6.472656 0.109375 5.734375 0.109375 Z M 5.734375 0.109375 "/></g></g></g><g fill="#ffffff" fill-opacity="1"><g transform="translate(118.996266, 235.285028)"><g><path d="M 1.4375 -9.59375 L 2.8125 -9.59375 L 2.8125 0 L 1.4375 0 Z M 1.4375 -9.59375 "/></g></g></g><g fill="#ffffff" fill-opacity="1"><g transform="translate(124.912833, 235.285028)"><g><path d="M 5.765625 0.109375 C 4.796875 0.109375 3.921875 -0.101562 3.140625 -0.53125 C 2.367188 -0.957031 1.757812 -1.539062 1.3125 -2.28125 C 0.875 -3.03125 0.65625 -3.867188 0.65625 -4.796875 C 0.65625 -5.722656 0.875 -6.554688 1.3125 -7.296875 C 1.757812 -8.046875 2.367188 -8.632812 3.140625 -9.0625 C 3.921875 -9.488281 4.796875 -9.703125 5.765625 -9.703125 C 6.722656 -9.703125 7.585938 -9.488281 8.359375 -9.0625 C 9.140625 -8.632812 9.75 -8.046875 10.1875 -7.296875 C 10.632812 -6.554688 10.859375 -5.722656 10.859375 -4.796875 C 10.859375 -3.859375 10.632812 -3.019531 10.1875 -2.28125 C 9.75 -1.539062 9.140625 -0.957031 8.359375 -0.53125 C 7.585938 -0.101562 6.722656 0.109375 5.765625 0.109375 Z M 5.765625 -1.109375 C 6.472656 -1.109375 7.109375 -1.265625 7.671875 -1.578125 C 8.234375 -1.898438 8.675781 -2.34375 9 -2.90625 C 9.320312 -3.46875 9.484375 -4.097656 9.484375 -4.796875 C 9.484375 -5.492188 9.320312 -6.117188 9 -6.671875 C 8.675781 -7.234375 8.234375 -7.675781 7.671875 -8 C 7.109375 -8.320312 6.472656 -8.484375 5.765625 -8.484375 C 5.066406 -8.484375 4.429688 -8.320312 3.859375 -8 C 3.285156 -7.675781 2.835938 -7.234375 2.515625 -6.671875 C 2.191406 -6.117188 2.03125 -5.492188 2.03125 -4.796875 C 2.03125 -4.097656 2.191406 -3.46875 2.515625 -2.90625 C 2.835938 -2.34375 3.285156 -1.898438 3.859375 -1.578125 C 4.429688 -1.265625 5.066406 -1.109375 5.765625 -1.109375 Z M 5.765625 -1.109375 "/></g></g></g><g fill="#ffffff" fill-opacity="1"><g transform="translate(138.088159, 235.285028)"><g><path d="M 9.6875 -9.59375 L 9.6875 0 L 8.5625 0 L 2.8125 -7.15625 L 2.8125 0 L 1.4375 0 L 1.4375 -9.59375 L 2.5625 -9.59375 L 8.3125 -2.4375 L 8.3125 -9.59375 Z M 9.6875 -9.59375 "/></g></g></g><g fill="#ffffff" fill-opacity="1"><g transform="translate(150.879986, 235.285028)"><g><path d="M 8.40625 -1.1875 L 8.40625 0 L 1.4375 0 L 1.4375 -9.59375 L 8.203125 -9.59375 L 8.203125 -8.40625 L 2.8125 -8.40625 L 2.8125 -5.453125 L 7.625 -5.453125 L 7.625 -4.296875 L 2.8125 -4.296875 L 2.8125 -1.1875 Z M 8.40625 -1.1875 "/></g></g></g><g fill="#ffffff" fill-opacity="1"><g transform="translate(161.727016, 235.285028)"><g><path d="M 4.234375 0.109375 C 3.515625 0.109375 2.816406 0 2.140625 -0.21875 C 1.472656 -0.445312 0.945312 -0.738281 0.5625 -1.09375 L 1.0625 -2.171875 C 1.425781 -1.835938 1.894531 -1.566406 2.46875 -1.359375 C 3.039062 -1.160156 3.628906 -1.0625 4.234375 -1.0625 C 5.023438 -1.0625 5.617188 -1.191406 6.015625 -1.453125 C 6.410156 -1.722656 6.609375 -2.082031 6.609375 -2.53125 C 6.609375 -2.863281 6.5 -3.128906 6.28125 -3.328125 C 6.0625 -3.535156 5.796875 -3.691406 5.484375 -3.796875 C 5.171875 -3.910156 4.726562 -4.035156 4.15625 -4.171875 C 3.425781 -4.347656 2.835938 -4.519531 2.390625 -4.6875 C 1.953125 -4.863281 1.578125 -5.132812 1.265625 -5.5 C 0.953125 -5.863281 0.796875 -6.351562 0.796875 -6.96875 C 0.796875 -7.476562 0.929688 -7.9375 1.203125 -8.34375 C 1.472656 -8.757812 1.878906 -9.085938 2.421875 -9.328125 C 2.972656 -9.578125 3.65625 -9.703125 4.46875 -9.703125 C 5.03125 -9.703125 5.585938 -9.628906 6.140625 -9.484375 C 6.691406 -9.335938 7.160156 -9.128906 7.546875 -8.859375 L 7.09375 -7.75 C 6.695312 -8.007812 6.269531 -8.203125 5.8125 -8.328125 C 5.351562 -8.460938 4.90625 -8.53125 4.46875 -8.53125 C 3.6875 -8.53125 3.101562 -8.390625 2.71875 -8.109375 C 2.332031 -7.828125 2.140625 -7.460938 2.140625 -7.015625 C 2.140625 -6.679688 2.25 -6.410156 2.46875 -6.203125 C 2.6875 -6.003906 2.957031 -5.847656 3.28125 -5.734375 C 3.601562 -5.617188 4.046875 -5.5 4.609375 -5.375 C 5.328125 -5.195312 5.90625 -5.019531 6.34375 -4.84375 C 6.78125 -4.675781 7.15625 -4.410156 7.46875 -4.046875 C 7.789062 -3.691406 7.953125 -3.21875 7.953125 -2.625 C 7.953125 -2.113281 7.8125 -1.648438 7.53125 -1.234375 C 7.257812 -0.816406 6.84375 -0.488281 6.28125 -0.25 C 5.726562 -0.0078125 5.046875 0.109375 4.234375 0.109375 Z M 4.234375 0.109375 "/></g></g></g><g fill="#ffffff" fill-opacity="1"><g transform="translate(171.902961, 235.285028)"><g/></g></g><g fill="#ffffff" fill-opacity="1"><g transform="translate(177.257996, 235.285028)"><g><path d="M 3.34375 -8.40625 L 0.0625 -8.40625 L 0.0625 -9.59375 L 7.984375 -9.59375 L 7.984375 -8.40625 L 4.703125 -8.40625 L 4.703125 0 L 3.34375 0 Z M 3.34375 -8.40625 "/></g></g></g><g fill="#ffffff" fill-opacity="1"><g transform="translate(186.968283, 235.285028)"><g><path d="M 8.40625 -1.1875 L 8.40625 0 L 1.4375 0 L 1.4375 -9.59375 L 8.203125 -9.59375 L 8.203125 -8.40625 L 2.8125 -8.40625 L 2.8125 -5.453125 L 7.625 -5.453125 L 7.625 -4.296875 L 2.8125 -4.296875 L 2.8125 -1.1875 Z M 8.40625 -1.1875 "/></g></g></g><g fill="#ffffff" fill-opacity="1"><g transform="translate(197.815313, 235.285028)"><g><path d="M 5.734375 0.109375 C 4.773438 0.109375 3.90625 -0.101562 3.125 -0.53125 C 2.351562 -0.957031 1.75 -1.539062 1.3125 -2.28125 C 0.875 -3.019531 0.65625 -3.859375 0.65625 -4.796875 C 0.65625 -5.722656 0.875 -6.554688 1.3125 -7.296875 C 1.75 -8.046875 2.351562 -8.632812 3.125 -9.0625 C 3.90625 -9.488281 4.773438 -9.703125 5.734375 -9.703125 C 6.484375 -9.703125 7.171875 -9.578125 7.796875 -9.328125 C 8.421875 -9.078125 8.953125 -8.703125 9.390625 -8.203125 L 8.5 -7.34375 C 7.769531 -8.101562 6.867188 -8.484375 5.796875 -8.484375 C 5.085938 -8.484375 4.441406 -8.320312 3.859375 -8 C 3.285156 -7.675781 2.835938 -7.234375 2.515625 -6.671875 C 2.191406 -6.117188 2.03125 -5.492188 2.03125 -4.796875 C 2.03125 -4.097656 2.191406 -3.46875 2.515625 -2.90625 C 2.835938 -2.34375 3.285156 -1.898438 3.859375 -1.578125 C 4.441406 -1.265625 5.085938 -1.109375 5.796875 -1.109375 C 6.867188 -1.109375 7.769531 -1.492188 8.5 -2.265625 L 9.390625 -1.390625 C 8.953125 -0.898438 8.414062 -0.523438 7.78125 -0.265625 C 7.15625 -0.015625 6.472656 0.109375 5.734375 0.109375 Z M 5.734375 0.109375 "/></g></g></g><g fill="#ffffff" fill-opacity="1"><g transform="translate(209.388224, 235.285028)"><g><path d="M 9.6875 -9.59375 L 9.6875 0 L 8.5625 0 L 2.8125 -7.15625 L 2.8125 0 L 1.4375 0 L 1.4375 -9.59375 L 2.5625 -9.59375 L 8.3125 -2.4375 L 8.3125 -9.59375 Z M 9.6875 -9.59375 "/></g></g></g><g fill="#ffffff" fill-opacity="1"><g transform="translate(222.180059, 235.285028)"><g><path d="M 5.765625 0.109375 C 4.796875 0.109375 3.921875 -0.101562 3.140625 -0.53125 C 2.367188 -0.957031 1.757812 -1.539062 1.3125 -2.28125 C 0.875 -3.03125 0.65625 -3.867188 0.65625 -4.796875 C 0.65625 -5.722656 0.875 -6.554688 1.3125 -7.296875 C 1.757812 -8.046875 2.367188 -8.632812 3.140625 -9.0625 C 3.921875 -9.488281 4.796875 -9.703125 5.765625 -9.703125 C 6.722656 -9.703125 7.585938 -9.488281 8.359375 -9.0625 C 9.140625 -8.632812 9.75 -8.046875 10.1875 -7.296875 C 10.632812 -6.554688 10.859375 -5.722656 10.859375 -4.796875 C 10.859375 -3.859375 10.632812 -3.019531 10.1875 -2.28125 C 9.75 -1.539062 9.140625 -0.957031 8.359375 -0.53125 C 7.585938 -0.101562 6.722656 0.109375 5.765625 0.109375 Z M 5.765625 -1.109375 C 6.472656 -1.109375 7.109375 -1.265625 7.671875 -1.578125 C 8.234375 -1.898438 8.675781 -2.34375 9 -2.90625 C 9.320312 -3.46875 9.484375 -4.097656 9.484375 -4.796875 C 9.484375 -5.492188 9.320312 -6.117188 9 -6.671875 C 8.675781 -7.234375 8.234375 -7.675781 7.671875 -8 C 7.109375 -8.320312 6.472656 -8.484375 5.765625 -8.484375 C 5.066406 -8.484375 4.429688 -8.320312 3.859375 -8 C 3.285156 -7.675781 2.835938 -7.234375 2.515625 -6.671875 C 2.191406 -6.117188 2.03125 -5.492188 2.03125 -4.796875 C 2.03125 -4.097656 2.191406 -3.46875 2.515625 -2.90625 C 2.835938 -2.34375 3.285156 -1.898438 3.859375 -1.578125 C 4.429688 -1.265625 5.066406 -1.109375 5.765625 -1.109375 Z M 5.765625 -1.109375 "/></g></g></g><g fill="#ffffff" fill-opacity="1"><g transform="translate(235.355389, 235.285028)"><g><path d="M 1.4375 -9.59375 L 2.8125 -9.59375 L 2.8125 -1.1875 L 8 -1.1875 L 8 0 L 1.4375 0 Z M 1.4375 -9.59375 "/></g></g></g><g fill="#ffffff" fill-opacity="1"><g transform="translate(245.161554, 235.285028)"><g><path d="M 5.765625 0.109375 C 4.796875 0.109375 3.921875 -0.101562 3.140625 -0.53125 C 2.367188 -0.957031 1.757812 -1.539062 1.3125 -2.28125 C 0.875 -3.03125 0.65625 -3.867188 0.65625 -4.796875 C 0.65625 -5.722656 0.875 -6.554688 1.3125 -7.296875 C 1.757812 -8.046875 2.367188 -8.632812 3.140625 -9.0625 C 3.921875 -9.488281 4.796875 -9.703125 5.765625 -9.703125 C 6.722656 -9.703125 7.585938 -9.488281 8.359375 -9.0625 C 9.140625 -8.632812 9.75 -8.046875 10.1875 -7.296875 C 10.632812 -6.554688 10.859375 -5.722656 10.859375 -4.796875 C 10.859375 -3.859375 10.632812 -3.019531 10.1875 -2.28125 C 9.75 -1.539062 9.140625 -0.957031 8.359375 -0.53125 C 7.585938 -0.101562 6.722656 0.109375 5.765625 0.109375 Z M 5.765625 -1.109375 C 6.472656 -1.109375 7.109375 -1.265625 7.671875 -1.578125 C 8.234375 -1.898438 8.675781 -2.34375 9 -2.90625 C 9.320312 -3.46875 9.484375 -4.097656 9.484375 -4.796875 C 9.484375 -5.492188 9.320312 -6.117188 9 -6.671875 C 8.675781 -7.234375 8.234375 -7.675781 7.671875 -8 C 7.109375 -8.320312 6.472656 -8.484375 5.765625 -8.484375 C 5.066406 -8.484375 4.429688 -8.320312 3.859375 -8 C 3.285156 -7.675781 2.835938 -7.234375 2.515625 -6.671875 C 2.191406 -6.117188 2.03125 -5.492188 2.03125 -4.796875 C 2.03125 -4.097656 2.191406 -3.46875 2.515625 -2.90625 C 2.835938 -2.34375 3.285156 -1.898438 3.859375 -1.578125 C 4.429688 -1.265625 5.066406 -1.109375 5.765625 -1.109375 Z M 5.765625 -1.109375 "/></g></g></g><g fill="#ffffff" fill-opacity="1"><g transform="translate(258.336884, 235.285028)"><g><path d="M 8.078125 -4.84375 L 9.40625 -4.84375 L 9.40625 -1.109375 C 8.925781 -0.710938 8.367188 -0.410156 7.734375 -0.203125 C 7.109375 0.00390625 6.453125 0.109375 5.765625 0.109375 C 4.796875 0.109375 3.921875 -0.101562 3.140625 -0.53125 C 2.367188 -0.957031 1.757812 -1.539062 1.3125 -2.28125 C 0.875 -3.019531 0.65625 -3.859375 0.65625 -4.796875 C 0.65625 -5.722656 0.875 -6.5625 1.3125 -7.3125 C 1.757812 -8.0625 2.375 -8.644531 3.15625 -9.0625 C 3.9375 -9.488281 4.816406 -9.703125 5.796875 -9.703125 C 6.566406 -9.703125 7.265625 -9.578125 7.890625 -9.328125 C 8.515625 -9.078125 9.046875 -8.707031 9.484375 -8.21875 L 8.640625 -7.375 C 7.867188 -8.113281 6.9375 -8.484375 5.84375 -8.484375 C 5.113281 -8.484375 4.457031 -8.320312 3.875 -8 C 3.300781 -7.6875 2.847656 -7.25 2.515625 -6.6875 C 2.191406 -6.125 2.03125 -5.492188 2.03125 -4.796875 C 2.03125 -4.097656 2.191406 -3.46875 2.515625 -2.90625 C 2.847656 -2.34375 3.300781 -1.898438 3.875 -1.578125 C 4.457031 -1.265625 5.113281 -1.109375 5.84375 -1.109375 C 6.695312 -1.109375 7.441406 -1.316406 8.078125 -1.734375 Z M 8.078125 -4.84375 "/></g></g></g><g fill="#ffffff" fill-opacity="1"><g transform="translate(270.580898, 235.285028)"><g><path d="M 1.4375 -9.59375 L 2.8125 -9.59375 L 2.8125 0 L 1.4375 0 Z M 1.4375 -9.59375 "/></g></g></g><g fill="#ffffff" fill-opacity="1"><g transform="translate(276.497469, 235.285028)"><g><path d="M 5.734375 0.109375 C 4.773438 0.109375 3.90625 -0.101562 3.125 -0.53125 C 2.351562 -0.957031 1.75 -1.539062 1.3125 -2.28125 C 0.875 -3.019531 0.65625 -3.859375 0.65625 -4.796875 C 0.65625 -5.722656 0.875 -6.554688 1.3125 -7.296875 C 1.75 -8.046875 2.351562 -8.632812 3.125 -9.0625 C 3.90625 -9.488281 4.773438 -9.703125 5.734375 -9.703125 C 6.484375 -9.703125 7.171875 -9.578125 7.796875 -9.328125 C 8.421875 -9.078125 8.953125 -8.703125 9.390625 -8.203125 L 8.5 -7.34375 C 7.769531 -8.101562 6.867188 -8.484375 5.796875 -8.484375 C 5.085938 -8.484375 4.441406 -8.320312 3.859375 -8 C 3.285156 -7.675781 2.835938 -7.234375 2.515625 -6.671875 C 2.191406 -6.117188 2.03125 -5.492188 2.03125 -4.796875 C 2.03125 -4.097656 2.191406 -3.46875 2.515625 -2.90625 C 2.835938 -2.34375 3.285156 -1.898438 3.859375 -1.578125 C 4.441406 -1.265625 5.085938 -1.109375 5.796875 -1.109375 C 6.867188 -1.109375 7.769531 -1.492188 8.5 -2.265625 L 9.390625 -1.390625 C 8.953125 -0.898438 8.414062 -0.523438 7.78125 -0.265625 C 7.15625 -0.015625 6.472656 0.109375 5.734375 0.109375 Z M 5.734375 0.109375 "/></g></g></g><g fill="#ffffff" fill-opacity="1"><g transform="translate(288.07038, 235.285028)"><g><path d="M 7.546875 -2.390625 L 2.453125 -2.390625 L 1.390625 0 L -0.015625 0 L 4.328125 -9.59375 L 5.6875 -9.59375 L 10.046875 0 L 8.609375 0 Z M 7.078125 -3.5 L 5 -8.1875 L 2.9375 -3.5 Z M 7.078125 -3.5 "/></g></g></g><g fill="#ffffff" fill-opacity="1"><g transform="translate(299.766554, 235.285028)"><g><path d="M 4.234375 0.109375 C 3.515625 0.109375 2.816406 0 2.140625 -0.21875 C 1.472656 -0.445312 0.945312 -0.738281 0.5625 -1.09375 L 1.0625 -2.171875 C 1.425781 -1.835938 1.894531 -1.566406 2.46875 -1.359375 C 3.039062 -1.160156 3.628906 -1.0625 4.234375 -1.0625 C 5.023438 -1.0625 5.617188 -1.191406 6.015625 -1.453125 C 6.410156 -1.722656 6.609375 -2.082031 6.609375 -2.53125 C 6.609375 -2.863281 6.5 -3.128906 6.28125 -3.328125 C 6.0625 -3.535156 5.796875 -3.691406 5.484375 -3.796875 C 5.171875 -3.910156 4.726562 -4.035156 4.15625 -4.171875 C 3.425781 -4.347656 2.835938 -4.519531 2.390625 -4.6875 C 1.953125 -4.863281 1.578125 -5.132812 1.265625 -5.5 C 0.953125 -5.863281 0.796875 -6.351562 0.796875 -6.96875 C 0.796875 -7.476562 0.929688 -7.9375 1.203125 -8.34375 C 1.472656 -8.757812 1.878906 -9.085938 2.421875 -9.328125 C 2.972656 -9.578125 3.65625 -9.703125 4.46875 -9.703125 C 5.03125 -9.703125 5.585938 -9.628906 6.140625 -9.484375 C 6.691406 -9.335938 7.160156 -9.128906 7.546875 -8.859375 L 7.09375 -7.75 C 6.695312 -8.007812 6.269531 -8.203125 5.8125 -8.328125 C 5.351562 -8.460938 4.90625 -8.53125 4.46875 -8.53125 C 3.6875 -8.53125 3.101562 -8.390625 2.71875 -8.109375 C 2.332031 -7.828125 2.140625 -7.460938 2.140625 -7.015625 C 2.140625 -6.679688 2.25 -6.410156 2.46875 -6.203125 C 2.6875 -6.003906 2.957031 -5.847656 3.28125 -5.734375 C 3.601562 -5.617188 4.046875 -5.5 4.609375 -5.375 C 5.328125 -5.195312 5.90625 -5.019531 6.34375 -4.84375 C 6.78125 -4.675781 7.15625 -4.410156 7.46875 -4.046875 C 7.789062 -3.691406 7.953125 -3.21875 7.953125 -2.625 C 7.953125 -2.113281 7.8125 -1.648438 7.53125 -1.234375 C 7.257812 -0.816406 6.84375 -0.488281 6.28125 -0.25 C 5.726562 -0.0078125 5.046875 0.109375 4.234375 0.109375 Z M 4.234375 0.109375 "/></g></g></g><g fill="#5ce1e6" fill-opacity="1"><g transform="translate(202.512121, 205.559573)"><g><path d="M 4.859375 0 L 4.859375 -69.578125 L 19.171875 -69.578125 L 19.171875 0 Z M 4.859375 0 "/></g></g></g><g fill="#5ce1e6" fill-opacity="1"><g transform="translate(226.540548, 205.559573)"><g><path d="M 18.359375 -41.5 L 18.359375 -21.765625 C 18.359375 -17.660156 18.976562 -14.742188 20.21875 -13.015625 C 21.46875 -11.296875 23.570312 -10.4375 26.53125 -10.4375 C 29.5 -10.4375 31.601562 -11.296875 32.84375 -13.015625 C 34.082031 -14.742188 34.703125 -17.660156 34.703125 -21.765625 L 34.703125 -41.5 L 49.03125 -41.5 L 49.03125 -18.28125 C 49.03125 -11.375 47.234375 -6.394531 43.640625 -3.34375 C 40.054688 -0.300781 34.351562 1.21875 26.53125 1.21875 C 18.71875 1.21875 13.015625 -0.300781 9.421875 -3.34375 C 5.835938 -6.394531 4.046875 -11.375 4.046875 -18.28125 L 4.046875 -41.5 Z M 18.359375 -41.5 "/></g></g></g><g fill="#7c2ae8" fill-opacity="1"><g transform="translate(85.444452, 205.559573)"><g><path d="M 6.21875 -64.640625 C 7.894531 -66.316406 9.894531 -67.15625 12.21875 -67.15625 C 14.539062 -67.15625 16.535156 -66.316406 18.203125 -64.640625 C 19.878906 -62.972656 20.71875 -60.976562 20.71875 -58.65625 C 20.71875 -56.332031 19.878906 -54.332031 18.203125 -52.65625 C 16.535156 -50.988281 14.539062 -50.15625 12.21875 -50.15625 C 9.894531 -50.15625 7.894531 -50.988281 6.21875 -52.65625 C 4.550781 -54.332031 3.71875 -56.332031 3.71875 -58.65625 C 3.71875 -60.976562 4.550781 -62.972656 6.21875 -64.640625 Z M 4.859375 -41.5 L 4.859375 0 L 19.171875 0 L 19.171875 -41.5 Z M 4.859375 -41.5 "/></g></g></g><g fill="#7c2ae8" fill-opacity="1"><g transform="translate(109.8774, 205.559573)"><g><path d="M 22.890625 -42.71875 C 25.265625 -42.71875 27.613281 -42.445312 29.9375 -41.90625 C 32.257812 -41.363281 33.984375 -40.828125 35.109375 -40.296875 L 36.8125 -39.484375 L 32.125 -30.09375 C 28.882812 -31.820312 25.804688 -32.6875 22.890625 -32.6875 C 21.273438 -32.6875 20.128906 -32.507812 19.453125 -32.15625 C 18.785156 -31.8125 18.453125 -31.148438 18.453125 -30.171875 C 18.453125 -29.960938 18.476562 -29.75 18.53125 -29.53125 C 18.582031 -29.3125 18.6875 -29.109375 18.84375 -28.921875 C 19.007812 -28.734375 19.160156 -28.570312 19.296875 -28.4375 C 19.429688 -28.300781 19.660156 -28.148438 19.984375 -27.984375 C 20.304688 -27.828125 20.5625 -27.707031 20.75 -27.625 C 20.9375 -27.550781 21.242188 -27.429688 21.671875 -27.265625 C 22.109375 -27.097656 22.4375 -26.972656 22.65625 -26.890625 C 22.875 -26.816406 23.238281 -26.695312 23.75 -26.53125 C 24.257812 -26.375 24.648438 -26.269531 24.921875 -26.21875 C 26.585938 -25.726562 28.039062 -25.1875 29.28125 -24.59375 C 30.53125 -24 31.84375 -23.1875 33.21875 -22.15625 C 34.59375 -21.132812 35.65625 -19.84375 36.40625 -18.28125 C 37.164062 -16.71875 37.546875 -14.9375 37.546875 -12.9375 C 37.546875 -3.5 30.988281 1.21875 17.875 1.21875 C 14.914062 1.21875 12.097656 0.757812 9.421875 -0.15625 C 6.753906 -1.070312 4.828125 -1.988281 3.640625 -2.90625 L 1.859375 -4.375 L 7.6875 -14.15625 C 8.113281 -13.78125 8.675781 -13.335938 9.375 -12.828125 C 10.082031 -12.316406 11.351562 -11.613281 13.1875 -10.71875 C 15.019531 -9.832031 16.613281 -9.390625 17.96875 -9.390625 C 20.925781 -9.390625 22.40625 -10.382812 22.40625 -12.375 C 22.40625 -13.289062 22.023438 -14.003906 21.265625 -14.515625 C 20.515625 -15.035156 19.234375 -15.617188 17.421875 -16.265625 C 15.617188 -16.910156 14.207031 -17.503906 13.1875 -18.046875 C 10.59375 -19.390625 8.539062 -20.910156 7.03125 -22.609375 C 5.53125 -24.304688 4.78125 -26.5625 4.78125 -29.375 C 4.78125 -33.570312 6.410156 -36.84375 9.671875 -39.1875 C 12.929688 -41.539062 17.335938 -42.71875 22.890625 -42.71875 Z M 22.890625 -42.71875 "/></g></g></g><g fill="#7c2ae8" fill-opacity="1"><g transform="translate(149.689445, 205.559573)"><g/></g></g><g fill="#7c2ae8" fill-opacity="1"><g transform="translate(171.776176, 205.559573)"><g/></g></g></svg>